<?xml version="1.0" encoding="utf-8" standalone="no"?>
<!DOCTYPE svg PUBLIC "-//W3C//DTD SVG 1.1//EN"
  "http://www.w3.org/Graphics/SVG/1.1/DTD/svg11.dtd">
<svg xmlns:xlink="http://www.w3.org/1999/xlink" width="1843.2pt" height="962.64pt" viewBox="0 0 1843.2 962.64" xmlns="http://www.w3.org/2000/svg" version="1.1">
 <metadata>
  <rdf:RDF xmlns:dc="http://purl.org/dc/elements/1.1/" xmlns:cc="http://creativecommons.org/ns#" xmlns:rdf="http://www.w3.org/1999/02/22-rdf-syntax-ns#">
   <cc:Work>
    <dc:type rdf:resource="http://purl.org/dc/dcmitype/StillImage"/>
    <dc:date>2023-10-26T08:32:55.031605</dc:date>
    <dc:format>image/svg+xml</dc:format>
    <dc:creator>
     <cc:Agent>
      <dc:title>Matplotlib v3.5.2, https://matplotlib.org/</dc:title>
     </cc:Agent>
    </dc:creator>
   </cc:Work>
  </rdf:RDF>
 </metadata>
 <defs>
  <style type="text/css">*{stroke-linejoin: round; stroke-linecap: butt}</style>
 </defs>
 <g id="figure_1">
  <g id="patch_1">
   <path d="M 0 962.64 
L 1843.2 962.64 
L 1843.2 0 
L 0 0 
z
" style="fill: #ffffff"/>
  </g>
  <g id="axes_1">
   <g id="patch_2">
    <path d="M 134.92 884.982583 
L 1768.14 884.982583 
L 1768.14 41.11275 
L 134.92 41.11275 
z
" style="fill: #ffffff"/>
   </g>
   <g id="patch_3">
    <path d="M 209.157273 884.982583 
L 319.138418 884.982583 
L 319.138418 303.166492 
L 209.157273 303.166492 
z
" clip-path="url(#p18fa0adccf)" style="fill: #1f77b4"/>
   </g>
   <g id="patch_4">
    <path d="M 346.633704 884.982583 
L 456.614848 884.982583 
L 456.614848 416.302932 
L 346.633704 416.302932 
z
" clip-path="url(#p18fa0adccf)" style="fill: #1f77b4"/>
   </g>
   <g id="patch_5">
    <path d="M 484.110135 884.982583 
L 594.091279 884.982583 
L 594.091279 422.477632 
L 484.110135 422.477632 
z
" clip-path="url(#p18fa0adccf)" style="fill: #1f77b4"/>
   </g>
   <g id="patch_6">
    <path d="M 621.586566 884.982583 
L 731.56771 884.982583 
L 731.56771 114.240589 
L 621.586566 114.240589 
z
" clip-path="url(#p18fa0adccf)" style="fill: #1f77b4"/>
   </g>
   <g id="patch_7">
    <path d="M 759.062997 884.982583 
L 869.044141 884.982583 
L 869.044141 399.372302 
L 759.062997 399.372302 
z
" clip-path="url(#p18fa0adccf)" style="fill: #1f77b4"/>
   </g>
   <g id="patch_8">
    <path d="M 896.539428 884.982583 
L 1006.520572 884.982583 
L 1006.520572 442.99357 
L 896.539428 442.99357 
z
" clip-path="url(#p18fa0adccf)" style="fill: #1f77b4"/>
   </g>
   <g id="patch_9">
    <path d="M 1034.015859 884.982583 
L 1143.997003 884.982583 
L 1143.997003 204.769659 
L 1034.015859 204.769659 
z
" clip-path="url(#p18fa0adccf)" style="fill: #1f77b4"/>
   </g>
   <g id="patch_10">
    <path d="M 1171.49229 884.982583 
L 1281.473434 884.982583 
L 1281.473434 390.209844 
L 1171.49229 390.209844 
z
" clip-path="url(#p18fa0adccf)" style="fill: #1f77b4"/>
   </g>
   <g id="patch_11">
    <path d="M 1308.968721 884.982583 
L 1418.949865 884.982583 
L 1418.949865 242.216227 
L 1308.968721 242.216227 
z
" clip-path="url(#p18fa0adccf)" style="fill: #1f77b4"/>
   </g>
   <g id="patch_12">
    <path d="M 1446.445152 884.982583 
L 1556.426296 884.982583 
L 1556.426296 424.668654 
L 1446.445152 424.668654 
z
" clip-path="url(#p18fa0adccf)" style="fill: #1f77b4"/>
   </g>
   <g id="patch_13">
    <path d="M 1583.921582 884.982583 
L 1693.902727 884.982583 
L 1693.902727 328.562436 
L 1583.921582 328.562436 
z
" clip-path="url(#p18fa0adccf)" style="fill: #1f77b4"/>
   </g>
   <g id="patch_14">
    <path d="M 209.157273 884.982583 
L 319.138418 884.982583 
L 319.138418 526.744476 
L 209.157273 526.744476 
z
" clip-path="url(#p18fa0adccf)" style="fill: #ff7f0e"/>
   </g>
   <g id="patch_15">
    <path d="M 346.633704 884.982583 
L 456.614848 884.982583 
L 456.614848 524.212973 
L 346.633704 524.212973 
z
" clip-path="url(#p18fa0adccf)" style="fill: #ff7f0e"/>
   </g>
   <g id="patch_16">
    <path d="M 484.110135 884.982583 
L 594.091279 884.982583 
L 594.091279 457.234906 
L 484.110135 457.234906 
z
" clip-path="url(#p18fa0adccf)" style="fill: #ff7f0e"/>
   </g>
   <g id="patch_17">
    <path d="M 621.586566 884.982583 
L 731.56771 884.982583 
L 731.56771 456.319905 
L 621.586566 456.319905 
z
" clip-path="url(#p18fa0adccf)" style="fill: #ff7f0e"/>
   </g>
   <g id="patch_18">
    <path d="M 759.062997 884.982583 
L 869.044141 884.982583 
L 869.044141 540.83549 
L 759.062997 540.83549 
z
" clip-path="url(#p18fa0adccf)" style="fill: #ff7f0e"/>
   </g>
   <g id="patch_19">
    <path d="M 896.539428 884.982583 
L 1006.520572 884.982583 
L 1006.520572 542.482491 
L 896.539428 542.482491 
z
" clip-path="url(#p18fa0adccf)" style="fill: #ff7f0e"/>
   </g>
   <g id="patch_20">
    <path d="M 1034.015859 884.982583 
L 1143.997003 884.982583 
L 1143.997003 454.245903 
L 1034.015859 454.245903 
z
" clip-path="url(#p18fa0adccf)" style="fill: #ff7f0e"/>
   </g>
   <g id="patch_21">
    <path d="M 1171.49229 884.982583 
L 1281.473434 884.982583 
L 1281.473434 471.859671 
L 1171.49229 471.859671 
z
" clip-path="url(#p18fa0adccf)" style="fill: #ff7f0e"/>
   </g>
   <g id="patch_22">
    <path d="M 1308.968721 884.982583 
L 1418.949865 884.982583 
L 1418.949865 441.786641 
L 1308.968721 441.786641 
z
" clip-path="url(#p18fa0adccf)" style="fill: #ff7f0e"/>
   </g>
   <g id="patch_23">
    <path d="M 1446.445152 884.982583 
L 1556.426296 884.982583 
L 1556.426296 502.664702 
L 1446.445152 502.664702 
z
" clip-path="url(#p18fa0adccf)" style="fill: #ff7f0e"/>
   </g>
   <g id="patch_24">
    <path d="M 1583.921582 884.982583 
L 1693.902727 884.982583 
L 1693.902727 463.456912 
L 1583.921582 463.456912 
z
" clip-path="url(#p18fa0adccf)" style="fill: #ff7f0e"/>
   </g>
   <g id="matplotlib.axis_1">
    <g id="xtick_1">
     <g id="line2d_1">
      <defs>
       <path id="md3731b60ad" d="M 0 0 
L 0 3.5 
" style="stroke: #000000; stroke-width: 0.8"/>
      </defs>
      <g>
       <use xlink:href="#md3731b60ad" x="264.147845" y="884.982583" style="stroke: #000000; stroke-width: 0.8"/>
      </g>
     </g>
     <g id="text_1">
      <!-- mid_object -->
      <g transform="translate(248.579902 938.757426)rotate(-50)scale(0.1 -0.1)">
       <defs>
        <path id="DejaVuSans-6d" d="M 3328 2828 
Q 3544 3216 3844 3400 
Q 4144 3584 4550 3584 
Q 5097 3584 5394 3201 
Q 5691 2819 5691 2113 
L 5691 0 
L 5113 0 
L 5113 2094 
Q 5113 2597 4934 2840 
Q 4756 3084 4391 3084 
Q 3944 3084 3684 2787 
Q 3425 2491 3425 1978 
L 3425 0 
L 2847 0 
L 2847 2094 
Q 2847 2600 2669 2842 
Q 2491 3084 2119 3084 
Q 1678 3084 1418 2786 
Q 1159 2488 1159 1978 
L 1159 0 
L 581 0 
L 581 3500 
L 1159 3500 
L 1159 2956 
Q 1356 3278 1631 3431 
Q 1906 3584 2284 3584 
Q 2666 3584 2933 3390 
Q 3200 3197 3328 2828 
z
" transform="scale(0.015625)"/>
        <path id="DejaVuSans-69" d="M 603 3500 
L 1178 3500 
L 1178 0 
L 603 0 
L 603 3500 
z
M 603 4863 
L 1178 4863 
L 1178 4134 
L 603 4134 
L 603 4863 
z
" transform="scale(0.015625)"/>
        <path id="DejaVuSans-64" d="M 2906 2969 
L 2906 4863 
L 3481 4863 
L 3481 0 
L 2906 0 
L 2906 525 
Q 2725 213 2448 61 
Q 2172 -91 1784 -91 
Q 1150 -91 751 415 
Q 353 922 353 1747 
Q 353 2572 751 3078 
Q 1150 3584 1784 3584 
Q 2172 3584 2448 3432 
Q 2725 3281 2906 2969 
z
M 947 1747 
Q 947 1113 1208 752 
Q 1469 391 1925 391 
Q 2381 391 2643 752 
Q 2906 1113 2906 1747 
Q 2906 2381 2643 2742 
Q 2381 3103 1925 3103 
Q 1469 3103 1208 2742 
Q 947 2381 947 1747 
z
" transform="scale(0.015625)"/>
        <path id="DejaVuSans-5f" d="M 3263 -1063 
L 3263 -1509 
L -63 -1509 
L -63 -1063 
L 3263 -1063 
z
" transform="scale(0.015625)"/>
        <path id="DejaVuSans-6f" d="M 1959 3097 
Q 1497 3097 1228 2736 
Q 959 2375 959 1747 
Q 959 1119 1226 758 
Q 1494 397 1959 397 
Q 2419 397 2687 759 
Q 2956 1122 2956 1747 
Q 2956 2369 2687 2733 
Q 2419 3097 1959 3097 
z
M 1959 3584 
Q 2709 3584 3137 3096 
Q 3566 2609 3566 1747 
Q 3566 888 3137 398 
Q 2709 -91 1959 -91 
Q 1206 -91 779 398 
Q 353 888 353 1747 
Q 353 2609 779 3096 
Q 1206 3584 1959 3584 
z
" transform="scale(0.015625)"/>
        <path id="DejaVuSans-62" d="M 3116 1747 
Q 3116 2381 2855 2742 
Q 2594 3103 2138 3103 
Q 1681 3103 1420 2742 
Q 1159 2381 1159 1747 
Q 1159 1113 1420 752 
Q 1681 391 2138 391 
Q 2594 391 2855 752 
Q 3116 1113 3116 1747 
z
M 1159 2969 
Q 1341 3281 1617 3432 
Q 1894 3584 2278 3584 
Q 2916 3584 3314 3078 
Q 3713 2572 3713 1747 
Q 3713 922 3314 415 
Q 2916 -91 2278 -91 
Q 1894 -91 1617 61 
Q 1341 213 1159 525 
L 1159 0 
L 581 0 
L 581 4863 
L 1159 4863 
L 1159 2969 
z
" transform="scale(0.015625)"/>
        <path id="DejaVuSans-6a" d="M 603 3500 
L 1178 3500 
L 1178 -63 
Q 1178 -731 923 -1031 
Q 669 -1331 103 -1331 
L -116 -1331 
L -116 -844 
L 38 -844 
Q 366 -844 484 -692 
Q 603 -541 603 -63 
L 603 3500 
z
M 603 4863 
L 1178 4863 
L 1178 4134 
L 603 4134 
L 603 4863 
z
" transform="scale(0.015625)"/>
        <path id="DejaVuSans-65" d="M 3597 1894 
L 3597 1613 
L 953 1613 
Q 991 1019 1311 708 
Q 1631 397 2203 397 
Q 2534 397 2845 478 
Q 3156 559 3463 722 
L 3463 178 
Q 3153 47 2828 -22 
Q 2503 -91 2169 -91 
Q 1331 -91 842 396 
Q 353 884 353 1716 
Q 353 2575 817 3079 
Q 1281 3584 2069 3584 
Q 2775 3584 3186 3129 
Q 3597 2675 3597 1894 
z
M 3022 2063 
Q 3016 2534 2758 2815 
Q 2500 3097 2075 3097 
Q 1594 3097 1305 2825 
Q 1016 2553 972 2059 
L 3022 2063 
z
" transform="scale(0.015625)"/>
        <path id="DejaVuSans-63" d="M 3122 3366 
L 3122 2828 
Q 2878 2963 2633 3030 
Q 2388 3097 2138 3097 
Q 1578 3097 1268 2742 
Q 959 2388 959 1747 
Q 959 1106 1268 751 
Q 1578 397 2138 397 
Q 2388 397 2633 464 
Q 2878 531 3122 666 
L 3122 134 
Q 2881 22 2623 -34 
Q 2366 -91 2075 -91 
Q 1284 -91 818 406 
Q 353 903 353 1747 
Q 353 2603 823 3093 
Q 1294 3584 2113 3584 
Q 2378 3584 2631 3529 
Q 2884 3475 3122 3366 
z
" transform="scale(0.015625)"/>
        <path id="DejaVuSans-74" d="M 1172 4494 
L 1172 3500 
L 2356 3500 
L 2356 3053 
L 1172 3053 
L 1172 1153 
Q 1172 725 1289 603 
Q 1406 481 1766 481 
L 2356 481 
L 2356 0 
L 1766 0 
Q 1100 0 847 248 
Q 594 497 594 1153 
L 594 3053 
L 172 3053 
L 172 3500 
L 594 3500 
L 594 4494 
L 1172 4494 
z
" transform="scale(0.015625)"/>
       </defs>
       <use xlink:href="#DejaVuSans-6d"/>
       <use xlink:href="#DejaVuSans-69" x="97.412109"/>
       <use xlink:href="#DejaVuSans-64" x="125.195312"/>
       <use xlink:href="#DejaVuSans-5f" x="188.671875"/>
       <use xlink:href="#DejaVuSans-6f" x="238.671875"/>
       <use xlink:href="#DejaVuSans-62" x="299.853516"/>
       <use xlink:href="#DejaVuSans-6a" x="363.330078"/>
       <use xlink:href="#DejaVuSans-65" x="391.113281"/>
       <use xlink:href="#DejaVuSans-63" x="452.636719"/>
       <use xlink:href="#DejaVuSans-74" x="507.617188"/>
      </g>
     </g>
     <g id="text_2">
      <!-- mid_object -->
      <g transform="translate(248.579902 32.597177)rotate(-50)scale(0.1 -0.1)">
       <use xlink:href="#DejaVuSans-6d"/>
       <use xlink:href="#DejaVuSans-69" x="97.412109"/>
       <use xlink:href="#DejaVuSans-64" x="125.195312"/>
       <use xlink:href="#DejaVuSans-5f" x="188.671875"/>
       <use xlink:href="#DejaVuSans-6f" x="238.671875"/>
       <use xlink:href="#DejaVuSans-62" x="299.853516"/>
       <use xlink:href="#DejaVuSans-6a" x="363.330078"/>
       <use xlink:href="#DejaVuSans-65" x="391.113281"/>
       <use xlink:href="#DejaVuSans-63" x="452.636719"/>
       <use xlink:href="#DejaVuSans-74" x="507.617188"/>
      </g>
     </g>
    </g>
    <g id="xtick_2">
     <g id="line2d_2">
      <g>
       <use xlink:href="#md3731b60ad" x="401.624276" y="884.982583" style="stroke: #000000; stroke-width: 0.8"/>
      </g>
     </g>
     <g id="text_3">
      <!-- ant_object -->
      <g transform="translate(386.853791 936.856679)rotate(-50)scale(0.1 -0.1)">
       <defs>
        <path id="DejaVuSans-61" d="M 2194 1759 
Q 1497 1759 1228 1600 
Q 959 1441 959 1056 
Q 959 750 1161 570 
Q 1363 391 1709 391 
Q 2188 391 2477 730 
Q 2766 1069 2766 1631 
L 2766 1759 
L 2194 1759 
z
M 3341 1997 
L 3341 0 
L 2766 0 
L 2766 531 
Q 2569 213 2275 61 
Q 1981 -91 1556 -91 
Q 1019 -91 701 211 
Q 384 513 384 1019 
Q 384 1609 779 1909 
Q 1175 2209 1959 2209 
L 2766 2209 
L 2766 2266 
Q 2766 2663 2505 2880 
Q 2244 3097 1772 3097 
Q 1472 3097 1187 3025 
Q 903 2953 641 2809 
L 641 3341 
Q 956 3463 1253 3523 
Q 1550 3584 1831 3584 
Q 2591 3584 2966 3190 
Q 3341 2797 3341 1997 
z
" transform="scale(0.015625)"/>
        <path id="DejaVuSans-6e" d="M 3513 2113 
L 3513 0 
L 2938 0 
L 2938 2094 
Q 2938 2591 2744 2837 
Q 2550 3084 2163 3084 
Q 1697 3084 1428 2787 
Q 1159 2491 1159 1978 
L 1159 0 
L 581 0 
L 581 3500 
L 1159 3500 
L 1159 2956 
Q 1366 3272 1645 3428 
Q 1925 3584 2291 3584 
Q 2894 3584 3203 3211 
Q 3513 2838 3513 2113 
z
" transform="scale(0.015625)"/>
       </defs>
       <use xlink:href="#DejaVuSans-61"/>
       <use xlink:href="#DejaVuSans-6e" x="61.279297"/>
       <use xlink:href="#DejaVuSans-74" x="124.658203"/>
       <use xlink:href="#DejaVuSans-5f" x="163.867188"/>
       <use xlink:href="#DejaVuSans-6f" x="213.867188"/>
       <use xlink:href="#DejaVuSans-62" x="275.048828"/>
       <use xlink:href="#DejaVuSans-6a" x="338.525391"/>
       <use xlink:href="#DejaVuSans-65" x="366.308594"/>
       <use xlink:href="#DejaVuSans-63" x="427.832031"/>
       <use xlink:href="#DejaVuSans-74" x="482.8125"/>
      </g>
     </g>
     <g id="text_4">
      <!-- ant_object -->
      <g transform="translate(386.853791 32.597177)rotate(-50)scale(0.1 -0.1)">
       <use xlink:href="#DejaVuSans-61"/>
       <use xlink:href="#DejaVuSans-6e" x="61.279297"/>
       <use xlink:href="#DejaVuSans-74" x="124.658203"/>
       <use xlink:href="#DejaVuSans-5f" x="163.867188"/>
       <use xlink:href="#DejaVuSans-6f" x="213.867188"/>
       <use xlink:href="#DejaVuSans-62" x="275.048828"/>
       <use xlink:href="#DejaVuSans-6a" x="338.525391"/>
       <use xlink:href="#DejaVuSans-65" x="366.308594"/>
       <use xlink:href="#DejaVuSans-63" x="427.832031"/>
       <use xlink:href="#DejaVuSans-74" x="482.8125"/>
      </g>
     </g>
    </g>
    <g id="xtick_3">
     <g id="line2d_3">
      <g>
       <use xlink:href="#md3731b60ad" x="539.100707" y="884.982583" style="stroke: #000000; stroke-width: 0.8"/>
      </g>
     </g>
     <g id="text_5">
      <!-- lh_post_face -->
      <g transform="translate(521.17755 944.371096)rotate(-50)scale(0.1 -0.1)">
       <defs>
        <path id="DejaVuSans-6c" d="M 603 4863 
L 1178 4863 
L 1178 0 
L 603 0 
L 603 4863 
z
" transform="scale(0.015625)"/>
        <path id="DejaVuSans-68" d="M 3513 2113 
L 3513 0 
L 2938 0 
L 2938 2094 
Q 2938 2591 2744 2837 
Q 2550 3084 2163 3084 
Q 1697 3084 1428 2787 
Q 1159 2491 1159 1978 
L 1159 0 
L 581 0 
L 581 4863 
L 1159 4863 
L 1159 2956 
Q 1366 3272 1645 3428 
Q 1925 3584 2291 3584 
Q 2894 3584 3203 3211 
Q 3513 2838 3513 2113 
z
" transform="scale(0.015625)"/>
        <path id="DejaVuSans-70" d="M 1159 525 
L 1159 -1331 
L 581 -1331 
L 581 3500 
L 1159 3500 
L 1159 2969 
Q 1341 3281 1617 3432 
Q 1894 3584 2278 3584 
Q 2916 3584 3314 3078 
Q 3713 2572 3713 1747 
Q 3713 922 3314 415 
Q 2916 -91 2278 -91 
Q 1894 -91 1617 61 
Q 1341 213 1159 525 
z
M 3116 1747 
Q 3116 2381 2855 2742 
Q 2594 3103 2138 3103 
Q 1681 3103 1420 2742 
Q 1159 2381 1159 1747 
Q 1159 1113 1420 752 
Q 1681 391 2138 391 
Q 2594 391 2855 752 
Q 3116 1113 3116 1747 
z
" transform="scale(0.015625)"/>
        <path id="DejaVuSans-73" d="M 2834 3397 
L 2834 2853 
Q 2591 2978 2328 3040 
Q 2066 3103 1784 3103 
Q 1356 3103 1142 2972 
Q 928 2841 928 2578 
Q 928 2378 1081 2264 
Q 1234 2150 1697 2047 
L 1894 2003 
Q 2506 1872 2764 1633 
Q 3022 1394 3022 966 
Q 3022 478 2636 193 
Q 2250 -91 1575 -91 
Q 1294 -91 989 -36 
Q 684 19 347 128 
L 347 722 
Q 666 556 975 473 
Q 1284 391 1588 391 
Q 1994 391 2212 530 
Q 2431 669 2431 922 
Q 2431 1156 2273 1281 
Q 2116 1406 1581 1522 
L 1381 1569 
Q 847 1681 609 1914 
Q 372 2147 372 2553 
Q 372 3047 722 3315 
Q 1072 3584 1716 3584 
Q 2034 3584 2315 3537 
Q 2597 3491 2834 3397 
z
" transform="scale(0.015625)"/>
        <path id="DejaVuSans-66" d="M 2375 4863 
L 2375 4384 
L 1825 4384 
Q 1516 4384 1395 4259 
Q 1275 4134 1275 3809 
L 1275 3500 
L 2222 3500 
L 2222 3053 
L 1275 3053 
L 1275 0 
L 697 0 
L 697 3053 
L 147 3053 
L 147 3500 
L 697 3500 
L 697 3744 
Q 697 4328 969 4595 
Q 1241 4863 1831 4863 
L 2375 4863 
z
" transform="scale(0.015625)"/>
       </defs>
       <use xlink:href="#DejaVuSans-6c"/>
       <use xlink:href="#DejaVuSans-68" x="27.783203"/>
       <use xlink:href="#DejaVuSans-5f" x="91.162109"/>
       <use xlink:href="#DejaVuSans-70" x="141.162109"/>
       <use xlink:href="#DejaVuSans-6f" x="204.638672"/>
       <use xlink:href="#DejaVuSans-73" x="265.820312"/>
       <use xlink:href="#DejaVuSans-74" x="317.919922"/>
       <use xlink:href="#DejaVuSans-5f" x="357.128906"/>
       <use xlink:href="#DejaVuSans-66" x="407.128906"/>
       <use xlink:href="#DejaVuSans-61" x="442.333984"/>
       <use xlink:href="#DejaVuSans-63" x="503.613281"/>
       <use xlink:href="#DejaVuSans-65" x="558.59375"/>
      </g>
     </g>
     <g id="text_6">
      <!-- lh_post_face -->
      <g transform="translate(521.17755 32.597177)rotate(-50)scale(0.1 -0.1)">
       <use xlink:href="#DejaVuSans-6c"/>
       <use xlink:href="#DejaVuSans-68" x="27.783203"/>
       <use xlink:href="#DejaVuSans-5f" x="91.162109"/>
       <use xlink:href="#DejaVuSans-70" x="141.162109"/>
       <use xlink:href="#DejaVuSans-6f" x="204.638672"/>
       <use xlink:href="#DejaVuSans-73" x="265.820312"/>
       <use xlink:href="#DejaVuSans-74" x="317.919922"/>
       <use xlink:href="#DejaVuSans-5f" x="357.128906"/>
       <use xlink:href="#DejaVuSans-66" x="407.128906"/>
       <use xlink:href="#DejaVuSans-61" x="442.333984"/>
       <use xlink:href="#DejaVuSans-63" x="503.613281"/>
       <use xlink:href="#DejaVuSans-65" x="558.59375"/>
      </g>
     </g>
    </g>
    <g id="xtick_4">
     <g id="line2d_4">
      <g>
       <use xlink:href="#md3731b60ad" x="676.577138" y="884.982583" style="stroke: #000000; stroke-width: 0.8"/>
      </g>
     </g>
     <g id="text_7">
      <!-- V4v_color -->
      <g transform="translate(662.91747 934.209038)rotate(-50)scale(0.1 -0.1)">
       <defs>
        <path id="DejaVuSans-56" d="M 1831 0 
L 50 4666 
L 709 4666 
L 2188 738 
L 3669 4666 
L 4325 4666 
L 2547 0 
L 1831 0 
z
" transform="scale(0.015625)"/>
        <path id="DejaVuSans-34" d="M 2419 4116 
L 825 1625 
L 2419 1625 
L 2419 4116 
z
M 2253 4666 
L 3047 4666 
L 3047 1625 
L 3713 1625 
L 3713 1100 
L 3047 1100 
L 3047 0 
L 2419 0 
L 2419 1100 
L 313 1100 
L 313 1709 
L 2253 4666 
z
" transform="scale(0.015625)"/>
        <path id="DejaVuSans-76" d="M 191 3500 
L 800 3500 
L 1894 563 
L 2988 3500 
L 3597 3500 
L 2284 0 
L 1503 0 
L 191 3500 
z
" transform="scale(0.015625)"/>
        <path id="DejaVuSans-72" d="M 2631 2963 
Q 2534 3019 2420 3045 
Q 2306 3072 2169 3072 
Q 1681 3072 1420 2755 
Q 1159 2438 1159 1844 
L 1159 0 
L 581 0 
L 581 3500 
L 1159 3500 
L 1159 2956 
Q 1341 3275 1631 3429 
Q 1922 3584 2338 3584 
Q 2397 3584 2469 3576 
Q 2541 3569 2628 3553 
L 2631 2963 
z
" transform="scale(0.015625)"/>
       </defs>
       <use xlink:href="#DejaVuSans-56"/>
       <use xlink:href="#DejaVuSans-34" x="68.408203"/>
       <use xlink:href="#DejaVuSans-76" x="132.03125"/>
       <use xlink:href="#DejaVuSans-5f" x="191.210938"/>
       <use xlink:href="#DejaVuSans-63" x="241.210938"/>
       <use xlink:href="#DejaVuSans-6f" x="296.191406"/>
       <use xlink:href="#DejaVuSans-6c" x="357.373047"/>
       <use xlink:href="#DejaVuSans-6f" x="385.15625"/>
       <use xlink:href="#DejaVuSans-72" x="446.337891"/>
      </g>
     </g>
     <g id="text_8">
      <!-- V4v_color -->
      <g transform="translate(662.91747 32.597177)rotate(-50)scale(0.1 -0.1)">
       <use xlink:href="#DejaVuSans-56"/>
       <use xlink:href="#DejaVuSans-34" x="68.408203"/>
       <use xlink:href="#DejaVuSans-76" x="132.03125"/>
       <use xlink:href="#DejaVuSans-5f" x="191.210938"/>
       <use xlink:href="#DejaVuSans-63" x="241.210938"/>
       <use xlink:href="#DejaVuSans-6f" x="296.191406"/>
       <use xlink:href="#DejaVuSans-6c" x="357.373047"/>
       <use xlink:href="#DejaVuSans-6f" x="385.15625"/>
       <use xlink:href="#DejaVuSans-72" x="446.337891"/>
      </g>
     </g>
    </g>
    <g id="xtick_5">
     <g id="line2d_5">
      <g>
       <use xlink:href="#md3731b60ad" x="814.053569" y="884.982583" style="stroke: #000000; stroke-width: 0.8"/>
      </g>
     </g>
     <g id="text_9">
      <!-- mid_face -->
      <g transform="translate(801.544391 931.466838)rotate(-50)scale(0.1 -0.1)">
       <use xlink:href="#DejaVuSans-6d"/>
       <use xlink:href="#DejaVuSans-69" x="97.412109"/>
       <use xlink:href="#DejaVuSans-64" x="125.195312"/>
       <use xlink:href="#DejaVuSans-5f" x="188.671875"/>
       <use xlink:href="#DejaVuSans-66" x="238.671875"/>
       <use xlink:href="#DejaVuSans-61" x="273.876953"/>
       <use xlink:href="#DejaVuSans-63" x="335.15625"/>
       <use xlink:href="#DejaVuSans-65" x="390.136719"/>
      </g>
     </g>
     <g id="text_10">
      <!-- mid_face -->
      <g transform="translate(801.544391 32.597177)rotate(-50)scale(0.1 -0.1)">
       <use xlink:href="#DejaVuSans-6d"/>
       <use xlink:href="#DejaVuSans-69" x="97.412109"/>
       <use xlink:href="#DejaVuSans-64" x="125.195312"/>
       <use xlink:href="#DejaVuSans-5f" x="188.671875"/>
       <use xlink:href="#DejaVuSans-66" x="238.671875"/>
       <use xlink:href="#DejaVuSans-61" x="273.876953"/>
       <use xlink:href="#DejaVuSans-63" x="335.15625"/>
       <use xlink:href="#DejaVuSans-65" x="390.136719"/>
      </g>
     </g>
    </g>
    <g id="xtick_6">
     <g id="line2d_6">
      <g>
       <use xlink:href="#md3731b60ad" x="951.53" y="884.982583" style="stroke: #000000; stroke-width: 0.8"/>
      </g>
     </g>
     <g id="text_11">
      <!-- ant_color -->
      <g transform="translate(938.749646 932.113188)rotate(-50)scale(0.1 -0.1)">
       <use xlink:href="#DejaVuSans-61"/>
       <use xlink:href="#DejaVuSans-6e" x="61.279297"/>
       <use xlink:href="#DejaVuSans-74" x="124.658203"/>
       <use xlink:href="#DejaVuSans-5f" x="163.867188"/>
       <use xlink:href="#DejaVuSans-63" x="213.867188"/>
       <use xlink:href="#DejaVuSans-6f" x="268.847656"/>
       <use xlink:href="#DejaVuSans-6c" x="330.029297"/>
       <use xlink:href="#DejaVuSans-6f" x="357.8125"/>
       <use xlink:href="#DejaVuSans-72" x="418.994141"/>
      </g>
     </g>
     <g id="text_12">
      <!-- ant_color -->
      <g transform="translate(938.749646 32.597177)rotate(-50)scale(0.1 -0.1)">
       <use xlink:href="#DejaVuSans-61"/>
       <use xlink:href="#DejaVuSans-6e" x="61.279297"/>
       <use xlink:href="#DejaVuSans-74" x="124.658203"/>
       <use xlink:href="#DejaVuSans-5f" x="163.867188"/>
       <use xlink:href="#DejaVuSans-63" x="213.867188"/>
       <use xlink:href="#DejaVuSans-6f" x="268.847656"/>
       <use xlink:href="#DejaVuSans-6c" x="330.029297"/>
       <use xlink:href="#DejaVuSans-6f" x="357.8125"/>
       <use xlink:href="#DejaVuSans-72" x="418.994141"/>
      </g>
     </g>
    </g>
    <g id="xtick_7">
     <g id="line2d_7">
      <g>
       <use xlink:href="#md3731b60ad" x="1089.006431" y="884.982583" style="stroke: #000000; stroke-width: 0.8"/>
      </g>
     </g>
     <g id="text_13">
      <!-- V4d_color -->
      <g transform="translate(1075.208664 934.538197)rotate(-50)scale(0.1 -0.1)">
       <use xlink:href="#DejaVuSans-56"/>
       <use xlink:href="#DejaVuSans-34" x="68.408203"/>
       <use xlink:href="#DejaVuSans-64" x="132.03125"/>
       <use xlink:href="#DejaVuSans-5f" x="195.507812"/>
       <use xlink:href="#DejaVuSans-63" x="245.507812"/>
       <use xlink:href="#DejaVuSans-6f" x="300.488281"/>
       <use xlink:href="#DejaVuSans-6c" x="361.669922"/>
       <use xlink:href="#DejaVuSans-6f" x="389.453125"/>
       <use xlink:href="#DejaVuSans-72" x="450.634766"/>
      </g>
     </g>
     <g id="text_14">
      <!-- V4d_color -->
      <g transform="translate(1075.208664 32.597177)rotate(-50)scale(0.1 -0.1)">
       <use xlink:href="#DejaVuSans-56"/>
       <use xlink:href="#DejaVuSans-34" x="68.408203"/>
       <use xlink:href="#DejaVuSans-64" x="132.03125"/>
       <use xlink:href="#DejaVuSans-5f" x="195.507812"/>
       <use xlink:href="#DejaVuSans-63" x="245.507812"/>
       <use xlink:href="#DejaVuSans-6f" x="300.488281"/>
       <use xlink:href="#DejaVuSans-6c" x="361.669922"/>
       <use xlink:href="#DejaVuSans-6f" x="389.453125"/>
       <use xlink:href="#DejaVuSans-72" x="450.634766"/>
      </g>
     </g>
    </g>
    <g id="xtick_8">
     <g id="line2d_8">
      <g>
       <use xlink:href="#md3731b60ad" x="1226.482862" y="884.982583" style="stroke: #000000; stroke-width: 0.8"/>
      </g>
     </g>
     <g id="text_15">
      <!-- mid_color -->
      <g transform="translate(1212.905049 934.013936)rotate(-50)scale(0.1 -0.1)">
       <use xlink:href="#DejaVuSans-6d"/>
       <use xlink:href="#DejaVuSans-69" x="97.412109"/>
       <use xlink:href="#DejaVuSans-64" x="125.195312"/>
       <use xlink:href="#DejaVuSans-5f" x="188.671875"/>
       <use xlink:href="#DejaVuSans-63" x="238.671875"/>
       <use xlink:href="#DejaVuSans-6f" x="293.652344"/>
       <use xlink:href="#DejaVuSans-6c" x="354.833984"/>
       <use xlink:href="#DejaVuSans-6f" x="382.617188"/>
       <use xlink:href="#DejaVuSans-72" x="443.798828"/>
      </g>
     </g>
     <g id="text_16">
      <!-- mid_color -->
      <g transform="translate(1212.905049 32.597177)rotate(-50)scale(0.1 -0.1)">
       <use xlink:href="#DejaVuSans-6d"/>
       <use xlink:href="#DejaVuSans-69" x="97.412109"/>
       <use xlink:href="#DejaVuSans-64" x="125.195312"/>
       <use xlink:href="#DejaVuSans-5f" x="188.671875"/>
       <use xlink:href="#DejaVuSans-63" x="238.671875"/>
       <use xlink:href="#DejaVuSans-6f" x="293.652344"/>
       <use xlink:href="#DejaVuSans-6c" x="354.833984"/>
       <use xlink:href="#DejaVuSans-6f" x="382.617188"/>
       <use xlink:href="#DejaVuSans-72" x="443.798828"/>
      </g>
     </g>
    </g>
    <g id="xtick_9">
     <g id="line2d_9">
      <g>
       <use xlink:href="#md3731b60ad" x="1363.959293" y="884.982583" style="stroke: #000000; stroke-width: 0.8"/>
      </g>
     </g>
     <g id="text_17">
      <!-- post_color -->
      <g transform="translate(1349.504175 936.104998)rotate(-50)scale(0.1 -0.1)">
       <use xlink:href="#DejaVuSans-70"/>
       <use xlink:href="#DejaVuSans-6f" x="63.476562"/>
       <use xlink:href="#DejaVuSans-73" x="124.658203"/>
       <use xlink:href="#DejaVuSans-74" x="176.757812"/>
       <use xlink:href="#DejaVuSans-5f" x="215.966797"/>
       <use xlink:href="#DejaVuSans-63" x="265.966797"/>
       <use xlink:href="#DejaVuSans-6f" x="320.947266"/>
       <use xlink:href="#DejaVuSans-6c" x="382.128906"/>
       <use xlink:href="#DejaVuSans-6f" x="409.912109"/>
       <use xlink:href="#DejaVuSans-72" x="471.09375"/>
      </g>
     </g>
     <g id="text_18">
      <!-- post_color -->
      <g transform="translate(1349.504175 32.597177)rotate(-50)scale(0.1 -0.1)">
       <use xlink:href="#DejaVuSans-70"/>
       <use xlink:href="#DejaVuSans-6f" x="63.476562"/>
       <use xlink:href="#DejaVuSans-73" x="124.658203"/>
       <use xlink:href="#DejaVuSans-74" x="176.757812"/>
       <use xlink:href="#DejaVuSans-5f" x="215.966797"/>
       <use xlink:href="#DejaVuSans-63" x="265.966797"/>
       <use xlink:href="#DejaVuSans-6f" x="320.947266"/>
       <use xlink:href="#DejaVuSans-6c" x="382.128906"/>
       <use xlink:href="#DejaVuSans-6f" x="409.912109"/>
       <use xlink:href="#DejaVuSans-72" x="471.09375"/>
      </g>
     </g>
    </g>
    <g id="xtick_10">
     <g id="line2d_10">
      <g>
       <use xlink:href="#md3731b60ad" x="1501.435724" y="884.982583" style="stroke: #000000; stroke-width: 0.8"/>
      </g>
     </g>
     <g id="text_19">
      <!-- ant_face -->
      <g transform="translate(1489.724004 929.56609)rotate(-50)scale(0.1 -0.1)">
       <use xlink:href="#DejaVuSans-61"/>
       <use xlink:href="#DejaVuSans-6e" x="61.279297"/>
       <use xlink:href="#DejaVuSans-74" x="124.658203"/>
       <use xlink:href="#DejaVuSans-5f" x="163.867188"/>
       <use xlink:href="#DejaVuSans-66" x="213.867188"/>
       <use xlink:href="#DejaVuSans-61" x="249.072266"/>
       <use xlink:href="#DejaVuSans-63" x="310.351562"/>
       <use xlink:href="#DejaVuSans-65" x="365.332031"/>
      </g>
     </g>
     <g id="text_20">
      <!-- ant_face -->
      <g transform="translate(1489.724004 32.597177)rotate(-50)scale(0.1 -0.1)">
       <use xlink:href="#DejaVuSans-61"/>
       <use xlink:href="#DejaVuSans-6e" x="61.279297"/>
       <use xlink:href="#DejaVuSans-74" x="124.658203"/>
       <use xlink:href="#DejaVuSans-5f" x="163.867188"/>
       <use xlink:href="#DejaVuSans-66" x="213.867188"/>
       <use xlink:href="#DejaVuSans-61" x="249.072266"/>
       <use xlink:href="#DejaVuSans-63" x="310.351562"/>
       <use xlink:href="#DejaVuSans-65" x="365.332031"/>
      </g>
     </g>
    </g>
    <g id="xtick_11">
     <g id="line2d_11">
      <g>
       <use xlink:href="#md3731b60ad" x="1638.912155" y="884.982583" style="stroke: #000000; stroke-width: 0.8"/>
      </g>
     </g>
     <g id="text_21">
      <!-- post_object -->
      <g transform="translate(1622.466907 940.848488)rotate(-50)scale(0.1 -0.1)">
       <use xlink:href="#DejaVuSans-70"/>
       <use xlink:href="#DejaVuSans-6f" x="63.476562"/>
       <use xlink:href="#DejaVuSans-73" x="124.658203"/>
       <use xlink:href="#DejaVuSans-74" x="176.757812"/>
       <use xlink:href="#DejaVuSans-5f" x="215.966797"/>
       <use xlink:href="#DejaVuSans-6f" x="265.966797"/>
       <use xlink:href="#DejaVuSans-62" x="327.148438"/>
       <use xlink:href="#DejaVuSans-6a" x="390.625"/>
       <use xlink:href="#DejaVuSans-65" x="418.408203"/>
       <use xlink:href="#DejaVuSans-63" x="479.931641"/>
       <use xlink:href="#DejaVuSans-74" x="534.912109"/>
      </g>
     </g>
     <g id="text_22">
      <!-- post_object -->
      <g transform="translate(1622.466907 32.597177)rotate(-50)scale(0.1 -0.1)">
       <use xlink:href="#DejaVuSans-70"/>
       <use xlink:href="#DejaVuSans-6f" x="63.476562"/>
       <use xlink:href="#DejaVuSans-73" x="124.658203"/>
       <use xlink:href="#DejaVuSans-74" x="176.757812"/>
       <use xlink:href="#DejaVuSans-5f" x="215.966797"/>
       <use xlink:href="#DejaVuSans-6f" x="265.966797"/>
       <use xlink:href="#DejaVuSans-62" x="327.148438"/>
       <use xlink:href="#DejaVuSans-6a" x="390.625"/>
       <use xlink:href="#DejaVuSans-65" x="418.408203"/>
       <use xlink:href="#DejaVuSans-63" x="479.931641"/>
       <use xlink:href="#DejaVuSans-74" x="534.912109"/>
      </g>
     </g>
    </g>
   </g>
   <g id="matplotlib.axis_2">
    <g id="ytick_1">
     <g id="line2d_12">
      <defs>
       <path id="m1d02c72277" d="M 0 0 
L -3.5 0 
" style="stroke: #000000; stroke-width: 0.8"/>
      </defs>
      <g>
       <use xlink:href="#m1d02c72277" x="134.92" y="884.982583" style="stroke: #000000; stroke-width: 0.8"/>
      </g>
     </g>
     <g id="text_23">
      <!-- 0.0 -->
      <g transform="translate(112.016875 888.781802)scale(0.1 -0.1)">
       <defs>
        <path id="DejaVuSans-30" d="M 2034 4250 
Q 1547 4250 1301 3770 
Q 1056 3291 1056 2328 
Q 1056 1369 1301 889 
Q 1547 409 2034 409 
Q 2525 409 2770 889 
Q 3016 1369 3016 2328 
Q 3016 3291 2770 3770 
Q 2525 4250 2034 4250 
z
M 2034 4750 
Q 2819 4750 3233 4129 
Q 3647 3509 3647 2328 
Q 3647 1150 3233 529 
Q 2819 -91 2034 -91 
Q 1250 -91 836 529 
Q 422 1150 422 2328 
Q 422 3509 836 4129 
Q 1250 4750 2034 4750 
z
" transform="scale(0.015625)"/>
        <path id="DejaVuSans-2e" d="M 684 794 
L 1344 794 
L 1344 0 
L 684 0 
L 684 794 
z
" transform="scale(0.015625)"/>
       </defs>
       <use xlink:href="#DejaVuSans-30"/>
       <use xlink:href="#DejaVuSans-2e" x="63.623047"/>
       <use xlink:href="#DejaVuSans-30" x="95.410156"/>
      </g>
     </g>
    </g>
    <g id="ytick_2">
     <g id="line2d_13">
      <g>
       <use xlink:href="#m1d02c72277" x="134.92" y="709.302408" style="stroke: #000000; stroke-width: 0.8"/>
      </g>
     </g>
     <g id="text_24">
      <!-- 0.1 -->
      <g transform="translate(112.016875 713.101627)scale(0.1 -0.1)">
       <defs>
        <path id="DejaVuSans-31" d="M 794 531 
L 1825 531 
L 1825 4091 
L 703 3866 
L 703 4441 
L 1819 4666 
L 2450 4666 
L 2450 531 
L 3481 531 
L 3481 0 
L 794 0 
L 794 531 
z
" transform="scale(0.015625)"/>
       </defs>
       <use xlink:href="#DejaVuSans-30"/>
       <use xlink:href="#DejaVuSans-2e" x="63.623047"/>
       <use xlink:href="#DejaVuSans-31" x="95.410156"/>
      </g>
     </g>
    </g>
    <g id="ytick_3">
     <g id="line2d_14">
      <g>
       <use xlink:href="#m1d02c72277" x="134.92" y="533.622232" style="stroke: #000000; stroke-width: 0.8"/>
      </g>
     </g>
     <g id="text_25">
      <!-- 0.2 -->
      <g transform="translate(112.016875 537.421451)scale(0.1 -0.1)">
       <defs>
        <path id="DejaVuSans-32" d="M 1228 531 
L 3431 531 
L 3431 0 
L 469 0 
L 469 531 
Q 828 903 1448 1529 
Q 2069 2156 2228 2338 
Q 2531 2678 2651 2914 
Q 2772 3150 2772 3378 
Q 2772 3750 2511 3984 
Q 2250 4219 1831 4219 
Q 1534 4219 1204 4116 
Q 875 4013 500 3803 
L 500 4441 
Q 881 4594 1212 4672 
Q 1544 4750 1819 4750 
Q 2544 4750 2975 4387 
Q 3406 4025 3406 3419 
Q 3406 3131 3298 2873 
Q 3191 2616 2906 2266 
Q 2828 2175 2409 1742 
Q 1991 1309 1228 531 
z
" transform="scale(0.015625)"/>
       </defs>
       <use xlink:href="#DejaVuSans-30"/>
       <use xlink:href="#DejaVuSans-2e" x="63.623047"/>
       <use xlink:href="#DejaVuSans-32" x="95.410156"/>
      </g>
     </g>
    </g>
    <g id="ytick_4">
     <g id="line2d_15">
      <g>
       <use xlink:href="#m1d02c72277" x="134.92" y="357.942057" style="stroke: #000000; stroke-width: 0.8"/>
      </g>
     </g>
     <g id="text_26">
      <!-- 0.3 -->
      <g transform="translate(112.016875 361.741276)scale(0.1 -0.1)">
       <defs>
        <path id="DejaVuSans-33" d="M 2597 2516 
Q 3050 2419 3304 2112 
Q 3559 1806 3559 1356 
Q 3559 666 3084 287 
Q 2609 -91 1734 -91 
Q 1441 -91 1130 -33 
Q 819 25 488 141 
L 488 750 
Q 750 597 1062 519 
Q 1375 441 1716 441 
Q 2309 441 2620 675 
Q 2931 909 2931 1356 
Q 2931 1769 2642 2001 
Q 2353 2234 1838 2234 
L 1294 2234 
L 1294 2753 
L 1863 2753 
Q 2328 2753 2575 2939 
Q 2822 3125 2822 3475 
Q 2822 3834 2567 4026 
Q 2313 4219 1838 4219 
Q 1578 4219 1281 4162 
Q 984 4106 628 3988 
L 628 4550 
Q 988 4650 1302 4700 
Q 1616 4750 1894 4750 
Q 2613 4750 3031 4423 
Q 3450 4097 3450 3541 
Q 3450 3153 3228 2886 
Q 3006 2619 2597 2516 
z
" transform="scale(0.015625)"/>
       </defs>
       <use xlink:href="#DejaVuSans-30"/>
       <use xlink:href="#DejaVuSans-2e" x="63.623047"/>
       <use xlink:href="#DejaVuSans-33" x="95.410156"/>
      </g>
     </g>
    </g>
    <g id="ytick_5">
     <g id="line2d_16">
      <g>
       <use xlink:href="#m1d02c72277" x="134.92" y="182.261882" style="stroke: #000000; stroke-width: 0.8"/>
      </g>
     </g>
     <g id="text_27">
      <!-- 0.4 -->
      <g transform="translate(112.016875 186.0611)scale(0.1 -0.1)">
       <use xlink:href="#DejaVuSans-30"/>
       <use xlink:href="#DejaVuSans-2e" x="63.623047"/>
       <use xlink:href="#DejaVuSans-34" x="95.410156"/>
      </g>
     </g>
    </g>
   </g>
   <g id="LineCollection_1">
    <path d="M 264.147845 333.816871 
L 264.147845 272.516113 
" clip-path="url(#p18fa0adccf)" style="fill: none; stroke: #000000; stroke-width: 1.5"/>
    <path d="M 401.624276 438.09605 
L 401.624276 394.509813 
" clip-path="url(#p18fa0adccf)" style="fill: none; stroke: #000000; stroke-width: 1.5"/>
    <path d="M 539.100707 446.714307 
L 539.100707 398.240956 
" clip-path="url(#p18fa0adccf)" style="fill: none; stroke: #000000; stroke-width: 1.5"/>
    <path d="M 676.577138 147.18415 
L 676.577138 81.297028 
" clip-path="url(#p18fa0adccf)" style="fill: none; stroke: #000000; stroke-width: 1.5"/>
    <path d="M 814.053569 418.010635 
L 814.053569 380.73397 
" clip-path="url(#p18fa0adccf)" style="fill: none; stroke: #000000; stroke-width: 1.5"/>
    <path d="M 951.53 467.958391 
L 951.53 418.02875 
" clip-path="url(#p18fa0adccf)" style="fill: none; stroke: #000000; stroke-width: 1.5"/>
    <path d="M 1089.006431 243.748167 
L 1089.006431 165.791151 
" clip-path="url(#p18fa0adccf)" style="fill: none; stroke: #000000; stroke-width: 1.5"/>
    <path d="M 1226.482862 414.762034 
L 1226.482862 365.657655 
" clip-path="url(#p18fa0adccf)" style="fill: none; stroke: #000000; stroke-width: 1.5"/>
    <path d="M 1363.959293 265.377295 
L 1363.959293 219.055159 
" clip-path="url(#p18fa0adccf)" style="fill: none; stroke: #000000; stroke-width: 1.5"/>
    <path d="M 1501.435724 448.74355 
L 1501.435724 400.593758 
" clip-path="url(#p18fa0adccf)" style="fill: none; stroke: #000000; stroke-width: 1.5"/>
    <path d="M 1638.912155 350.265939 
L 1638.912155 306.858933 
" clip-path="url(#p18fa0adccf)" style="fill: none; stroke: #000000; stroke-width: 1.5"/>
   </g>
   <g id="LineCollection_2">
    <path d="M 264.147845 548.628428 
L 264.147845 504.860523 
" clip-path="url(#p18fa0adccf)" style="fill: none; stroke: #000000; stroke-width: 1.5"/>
    <path d="M 401.624276 549.344568 
L 401.624276 499.081378 
" clip-path="url(#p18fa0adccf)" style="fill: none; stroke: #000000; stroke-width: 1.5"/>
    <path d="M 539.100707 482.387813 
L 539.100707 432.082 
" clip-path="url(#p18fa0adccf)" style="fill: none; stroke: #000000; stroke-width: 1.5"/>
    <path d="M 676.577138 485.651909 
L 676.577138 426.987901 
" clip-path="url(#p18fa0adccf)" style="fill: none; stroke: #000000; stroke-width: 1.5"/>
    <path d="M 814.053569 560.519065 
L 814.053569 521.151914 
" clip-path="url(#p18fa0adccf)" style="fill: none; stroke: #000000; stroke-width: 1.5"/>
    <path d="M 951.53 575.032251 
L 951.53 509.932731 
" clip-path="url(#p18fa0adccf)" style="fill: none; stroke: #000000; stroke-width: 1.5"/>
    <path d="M 1089.006431 480.041587 
L 1089.006431 428.45022 
" clip-path="url(#p18fa0adccf)" style="fill: none; stroke: #000000; stroke-width: 1.5"/>
    <path d="M 1226.482862 502.886088 
L 1226.482862 440.833253 
" clip-path="url(#p18fa0adccf)" style="fill: none; stroke: #000000; stroke-width: 1.5"/>
    <path d="M 1363.959293 466.98489 
L 1363.959293 416.588391 
" clip-path="url(#p18fa0adccf)" style="fill: none; stroke: #000000; stroke-width: 1.5"/>
    <path d="M 1501.435724 533.747285 
L 1501.435724 471.582118 
" clip-path="url(#p18fa0adccf)" style="fill: none; stroke: #000000; stroke-width: 1.5"/>
    <path d="M 1638.912155 494.218197 
L 1638.912155 432.695628 
" clip-path="url(#p18fa0adccf)" style="fill: none; stroke: #000000; stroke-width: 1.5"/>
   </g>
   <g id="line2d_17"/>
   <g id="line2d_18"/>
   <g id="patch_25">
    <path d="M 134.92 884.982583 
L 134.92 41.11275 
" style="fill: none; stroke: #000000; stroke-width: 0.8; stroke-linejoin: miter; stroke-linecap: square"/>
   </g>
   <g id="patch_26">
    <path d="M 1768.14 884.982583 
L 1768.14 41.11275 
" style="fill: none; stroke: #000000; stroke-width: 0.8; stroke-linejoin: miter; stroke-linecap: square"/>
   </g>
   <g id="patch_27">
    <path d="M 134.92 884.982583 
L 1768.14 884.982583 
" style="fill: none; stroke: #000000; stroke-width: 0.8; stroke-linejoin: miter; stroke-linecap: square"/>
   </g>
   <g id="patch_28">
    <path d="M 134.92 41.11275 
L 1768.14 41.11275 
" style="fill: none; stroke: #000000; stroke-width: 0.8; stroke-linejoin: miter; stroke-linecap: square"/>
   </g>
  </g>
 </g>
 <defs>
  <clipPath id="p18fa0adccf">
   <rect x="134.92" y="41.11275" width="1633.22" height="843.869833"/>
  </clipPath>
 </defs>
</svg>
