<?xml version="1.0" encoding="utf-8" standalone="no"?>
<!DOCTYPE svg PUBLIC "-//W3C//DTD SVG 1.1//EN"
  "http://www.w3.org/Graphics/SVG/1.1/DTD/svg11.dtd">
<svg xmlns:xlink="http://www.w3.org/1999/xlink" width="1843.2pt" height="962.64pt" viewBox="0 0 1843.2 962.64" xmlns="http://www.w3.org/2000/svg" version="1.1">
 <metadata>
  <rdf:RDF xmlns:dc="http://purl.org/dc/elements/1.1/" xmlns:cc="http://creativecommons.org/ns#" xmlns:rdf="http://www.w3.org/1999/02/22-rdf-syntax-ns#">
   <cc:Work>
    <dc:type rdf:resource="http://purl.org/dc/dcmitype/StillImage"/>
    <dc:date>2023-10-27T11:25:58.466358</dc:date>
    <dc:format>image/svg+xml</dc:format>
    <dc:creator>
     <cc:Agent>
      <dc:title>Matplotlib v3.5.2, https://matplotlib.org/</dc:title>
     </cc:Agent>
    </dc:creator>
   </cc:Work>
  </rdf:RDF>
 </metadata>
 <defs>
  <style type="text/css">*{stroke-linejoin: round; stroke-linecap: butt}</style>
 </defs>
 <g id="figure_1">
  <g id="patch_1">
   <path d="M 0 962.64 
L 1843.2 962.64 
L 1843.2 0 
L 0 0 
z
" style="fill: #ffffff"/>
  </g>
  <g id="axes_1">
   <g id="patch_2">
    <path d="M 134.92 884.982583 
L 1768.14 884.982583 
L 1768.14 41.11275 
L 134.92 41.11275 
z
" style="fill: #ffffff"/>
   </g>
   <g id="patch_3">
    <path d="M 209.157273 884.982583 
L 301.953864 884.982583 
L 301.953864 353.830503 
L 209.157273 353.830503 
z
" clip-path="url(#p7146381b06)" style="fill: #1f77b4"/>
   </g>
   <g id="patch_4">
    <path d="M 325.153011 884.982583 
L 417.949602 884.982583 
L 417.949602 369.818358 
L 325.153011 369.818358 
z
" clip-path="url(#p7146381b06)" style="fill: #1f77b4"/>
   </g>
   <g id="patch_5">
    <path d="M 441.14875 884.982583 
L 533.945341 884.982583 
L 533.945341 416.005496 
L 441.14875 416.005496 
z
" clip-path="url(#p7146381b06)" style="fill: #1f77b4"/>
   </g>
   <g id="patch_6">
    <path d="M 557.144489 884.982583 
L 649.94108 884.982583 
L 649.94108 296.984795 
L 557.144489 296.984795 
z
" clip-path="url(#p7146381b06)" style="fill: #1f77b4"/>
   </g>
   <g id="patch_7">
    <path d="M 673.140227 884.982583 
L 765.936818 884.982583 
L 765.936818 250.797658 
L 673.140227 250.797658 
z
" clip-path="url(#p7146381b06)" style="fill: #1f77b4"/>
   </g>
   <g id="patch_8">
    <path d="M 789.135966 884.982583 
L 881.932557 884.982583 
L 881.932557 412.452639 
L 789.135966 412.452639 
z
" clip-path="url(#p7146381b06)" style="fill: #1f77b4"/>
   </g>
   <g id="patch_9">
    <path d="M 905.131705 884.982583 
L 997.928295 884.982583 
L 997.928295 330.736934 
L 905.131705 330.736934 
z
" clip-path="url(#p7146381b06)" style="fill: #1f77b4"/>
   </g>
   <g id="patch_10">
    <path d="M 1021.127443 884.982583 
L 1113.924034 884.982583 
L 1113.924034 410.676211 
L 1021.127443 410.676211 
z
" clip-path="url(#p7146381b06)" style="fill: #1f77b4"/>
   </g>
   <g id="patch_11">
    <path d="M 1137.123182 884.982583 
L 1229.919773 884.982583 
L 1229.919773 126.447673 
L 1137.123182 126.447673 
z
" clip-path="url(#p7146381b06)" style="fill: #1f77b4"/>
   </g>
   <g id="patch_12">
    <path d="M 1253.11892 884.982583 
L 1345.915511 884.982583 
L 1345.915511 307.643366 
L 1253.11892 307.643366 
z
" clip-path="url(#p7146381b06)" style="fill: #1f77b4"/>
   </g>
   <g id="patch_13">
    <path d="M 1369.114659 884.982583 
L 1461.91125 884.982583 
L 1461.91125 279.220512 
L 1369.114659 279.220512 
z
" clip-path="url(#p7146381b06)" style="fill: #1f77b4"/>
   </g>
   <g id="patch_14">
    <path d="M 1485.110398 884.982583 
L 1577.906989 884.982583 
L 1577.906989 199.281235 
L 1485.110398 199.281235 
z
" clip-path="url(#p7146381b06)" style="fill: #1f77b4"/>
   </g>
   <g id="patch_15">
    <path d="M 1601.106136 884.982583 
L 1693.902727 884.982583 
L 1693.902727 144.211956 
L 1601.106136 144.211956 
z
" clip-path="url(#p7146381b06)" style="fill: #1f77b4"/>
   </g>
   <g id="patch_16">
    <path d="M 209.157273 884.982583 
L 301.953864 884.982583 
L 301.953864 449.846456 
L 209.157273 449.846456 
z
" clip-path="url(#p7146381b06)" style="fill: #ff7f0e"/>
   </g>
   <g id="patch_17">
    <path d="M 325.153011 884.982583 
L 417.949602 884.982583 
L 417.949602 434.924458 
L 325.153011 434.924458 
z
" clip-path="url(#p7146381b06)" style="fill: #ff7f0e"/>
   </g>
   <g id="patch_18">
    <path d="M 441.14875 884.982583 
L 533.945341 884.982583 
L 533.945341 492.480737 
L 441.14875 492.480737 
z
" clip-path="url(#p7146381b06)" style="fill: #ff7f0e"/>
   </g>
   <g id="patch_19">
    <path d="M 557.144489 884.982583 
L 649.94108 884.982583 
L 649.94108 439.187886 
L 557.144489 439.187886 
z
" clip-path="url(#p7146381b06)" style="fill: #ff7f0e"/>
   </g>
   <g id="patch_20">
    <path d="M 673.140227 884.982583 
L 765.936818 884.982583 
L 765.936818 466.100776 
L 673.140227 466.100776 
z
" clip-path="url(#p7146381b06)" style="fill: #ff7f0e"/>
   </g>
   <g id="patch_21">
    <path d="M 789.135966 884.982583 
L 881.932557 884.982583 
L 881.932557 435.457386 
L 789.135966 435.457386 
z
" clip-path="url(#p7146381b06)" style="fill: #ff7f0e"/>
   </g>
   <g id="patch_22">
    <path d="M 905.131705 884.982583 
L 997.928295 884.982583 
L 997.928295 476.759346 
L 905.131705 476.759346 
z
" clip-path="url(#p7146381b06)" style="fill: #ff7f0e"/>
   </g>
   <g id="patch_23">
    <path d="M 1021.127443 884.982583 
L 1113.924034 884.982583 
L 1113.924034 440.253743 
L 1021.127443 440.253743 
z
" clip-path="url(#p7146381b06)" style="fill: #ff7f0e"/>
   </g>
   <g id="patch_24">
    <path d="M 1137.123182 884.982583 
L 1229.919773 884.982583 
L 1229.919773 420.535388 
L 1137.123182 420.535388 
z
" clip-path="url(#p7146381b06)" style="fill: #ff7f0e"/>
   </g>
   <g id="patch_25">
    <path d="M 1253.11892 884.982583 
L 1345.915511 884.982583 
L 1345.915511 441.852528 
L 1253.11892 441.852528 
z
" clip-path="url(#p7146381b06)" style="fill: #ff7f0e"/>
   </g>
   <g id="patch_26">
    <path d="M 1369.114659 884.982583 
L 1461.91125 884.982583 
L 1461.91125 449.313527 
L 1369.114659 449.313527 
z
" clip-path="url(#p7146381b06)" style="fill: #ff7f0e"/>
   </g>
   <g id="patch_27">
    <path d="M 1485.110398 884.982583 
L 1577.906989 884.982583 
L 1577.906989 407.47864 
L 1485.110398 407.47864 
z
" clip-path="url(#p7146381b06)" style="fill: #ff7f0e"/>
   </g>
   <g id="patch_28">
    <path d="M 1601.106136 884.982583 
L 1693.902727 884.982583 
L 1693.902727 401.349962 
L 1601.106136 401.349962 
z
" clip-path="url(#p7146381b06)" style="fill: #ff7f0e"/>
   </g>
   <g id="matplotlib.axis_1">
    <g id="xtick_1">
     <g id="line2d_1">
      <defs>
       <path id="m63f558ecc8" d="M 0 0 
L 0 3.5 
" style="stroke: #000000; stroke-width: 0.8"/>
      </defs>
      <g>
       <use xlink:href="#m63f558ecc8" x="255.555568" y="884.982583" style="stroke: #000000; stroke-width: 0.8"/>
      </g>
     </g>
     <g id="text_1">
      <!-- mid_object -->
      <g transform="translate(239.987625 938.757426)rotate(-50)scale(0.1 -0.1)">
       <defs>
        <path id="DejaVuSans-6d" d="M 3328 2828 
Q 3544 3216 3844 3400 
Q 4144 3584 4550 3584 
Q 5097 3584 5394 3201 
Q 5691 2819 5691 2113 
L 5691 0 
L 5113 0 
L 5113 2094 
Q 5113 2597 4934 2840 
Q 4756 3084 4391 3084 
Q 3944 3084 3684 2787 
Q 3425 2491 3425 1978 
L 3425 0 
L 2847 0 
L 2847 2094 
Q 2847 2600 2669 2842 
Q 2491 3084 2119 3084 
Q 1678 3084 1418 2786 
Q 1159 2488 1159 1978 
L 1159 0 
L 581 0 
L 581 3500 
L 1159 3500 
L 1159 2956 
Q 1356 3278 1631 3431 
Q 1906 3584 2284 3584 
Q 2666 3584 2933 3390 
Q 3200 3197 3328 2828 
z
" transform="scale(0.015625)"/>
        <path id="DejaVuSans-69" d="M 603 3500 
L 1178 3500 
L 1178 0 
L 603 0 
L 603 3500 
z
M 603 4863 
L 1178 4863 
L 1178 4134 
L 603 4134 
L 603 4863 
z
" transform="scale(0.015625)"/>
        <path id="DejaVuSans-64" d="M 2906 2969 
L 2906 4863 
L 3481 4863 
L 3481 0 
L 2906 0 
L 2906 525 
Q 2725 213 2448 61 
Q 2172 -91 1784 -91 
Q 1150 -91 751 415 
Q 353 922 353 1747 
Q 353 2572 751 3078 
Q 1150 3584 1784 3584 
Q 2172 3584 2448 3432 
Q 2725 3281 2906 2969 
z
M 947 1747 
Q 947 1113 1208 752 
Q 1469 391 1925 391 
Q 2381 391 2643 752 
Q 2906 1113 2906 1747 
Q 2906 2381 2643 2742 
Q 2381 3103 1925 3103 
Q 1469 3103 1208 2742 
Q 947 2381 947 1747 
z
" transform="scale(0.015625)"/>
        <path id="DejaVuSans-5f" d="M 3263 -1063 
L 3263 -1509 
L -63 -1509 
L -63 -1063 
L 3263 -1063 
z
" transform="scale(0.015625)"/>
        <path id="DejaVuSans-6f" d="M 1959 3097 
Q 1497 3097 1228 2736 
Q 959 2375 959 1747 
Q 959 1119 1226 758 
Q 1494 397 1959 397 
Q 2419 397 2687 759 
Q 2956 1122 2956 1747 
Q 2956 2369 2687 2733 
Q 2419 3097 1959 3097 
z
M 1959 3584 
Q 2709 3584 3137 3096 
Q 3566 2609 3566 1747 
Q 3566 888 3137 398 
Q 2709 -91 1959 -91 
Q 1206 -91 779 398 
Q 353 888 353 1747 
Q 353 2609 779 3096 
Q 1206 3584 1959 3584 
z
" transform="scale(0.015625)"/>
        <path id="DejaVuSans-62" d="M 3116 1747 
Q 3116 2381 2855 2742 
Q 2594 3103 2138 3103 
Q 1681 3103 1420 2742 
Q 1159 2381 1159 1747 
Q 1159 1113 1420 752 
Q 1681 391 2138 391 
Q 2594 391 2855 752 
Q 3116 1113 3116 1747 
z
M 1159 2969 
Q 1341 3281 1617 3432 
Q 1894 3584 2278 3584 
Q 2916 3584 3314 3078 
Q 3713 2572 3713 1747 
Q 3713 922 3314 415 
Q 2916 -91 2278 -91 
Q 1894 -91 1617 61 
Q 1341 213 1159 525 
L 1159 0 
L 581 0 
L 581 4863 
L 1159 4863 
L 1159 2969 
z
" transform="scale(0.015625)"/>
        <path id="DejaVuSans-6a" d="M 603 3500 
L 1178 3500 
L 1178 -63 
Q 1178 -731 923 -1031 
Q 669 -1331 103 -1331 
L -116 -1331 
L -116 -844 
L 38 -844 
Q 366 -844 484 -692 
Q 603 -541 603 -63 
L 603 3500 
z
M 603 4863 
L 1178 4863 
L 1178 4134 
L 603 4134 
L 603 4863 
z
" transform="scale(0.015625)"/>
        <path id="DejaVuSans-65" d="M 3597 1894 
L 3597 1613 
L 953 1613 
Q 991 1019 1311 708 
Q 1631 397 2203 397 
Q 2534 397 2845 478 
Q 3156 559 3463 722 
L 3463 178 
Q 3153 47 2828 -22 
Q 2503 -91 2169 -91 
Q 1331 -91 842 396 
Q 353 884 353 1716 
Q 353 2575 817 3079 
Q 1281 3584 2069 3584 
Q 2775 3584 3186 3129 
Q 3597 2675 3597 1894 
z
M 3022 2063 
Q 3016 2534 2758 2815 
Q 2500 3097 2075 3097 
Q 1594 3097 1305 2825 
Q 1016 2553 972 2059 
L 3022 2063 
z
" transform="scale(0.015625)"/>
        <path id="DejaVuSans-63" d="M 3122 3366 
L 3122 2828 
Q 2878 2963 2633 3030 
Q 2388 3097 2138 3097 
Q 1578 3097 1268 2742 
Q 959 2388 959 1747 
Q 959 1106 1268 751 
Q 1578 397 2138 397 
Q 2388 397 2633 464 
Q 2878 531 3122 666 
L 3122 134 
Q 2881 22 2623 -34 
Q 2366 -91 2075 -91 
Q 1284 -91 818 406 
Q 353 903 353 1747 
Q 353 2603 823 3093 
Q 1294 3584 2113 3584 
Q 2378 3584 2631 3529 
Q 2884 3475 3122 3366 
z
" transform="scale(0.015625)"/>
        <path id="DejaVuSans-74" d="M 1172 4494 
L 1172 3500 
L 2356 3500 
L 2356 3053 
L 1172 3053 
L 1172 1153 
Q 1172 725 1289 603 
Q 1406 481 1766 481 
L 2356 481 
L 2356 0 
L 1766 0 
Q 1100 0 847 248 
Q 594 497 594 1153 
L 594 3053 
L 172 3053 
L 172 3500 
L 594 3500 
L 594 4494 
L 1172 4494 
z
" transform="scale(0.015625)"/>
       </defs>
       <use xlink:href="#DejaVuSans-6d"/>
       <use xlink:href="#DejaVuSans-69" x="97.412109"/>
       <use xlink:href="#DejaVuSans-64" x="125.195312"/>
       <use xlink:href="#DejaVuSans-5f" x="188.671875"/>
       <use xlink:href="#DejaVuSans-6f" x="238.671875"/>
       <use xlink:href="#DejaVuSans-62" x="299.853516"/>
       <use xlink:href="#DejaVuSans-6a" x="363.330078"/>
       <use xlink:href="#DejaVuSans-65" x="391.113281"/>
       <use xlink:href="#DejaVuSans-63" x="452.636719"/>
       <use xlink:href="#DejaVuSans-74" x="507.617188"/>
      </g>
     </g>
     <g id="text_2">
      <!-- mid_object -->
      <g transform="translate(239.987625 32.597177)rotate(-50)scale(0.1 -0.1)">
       <use xlink:href="#DejaVuSans-6d"/>
       <use xlink:href="#DejaVuSans-69" x="97.412109"/>
       <use xlink:href="#DejaVuSans-64" x="125.195312"/>
       <use xlink:href="#DejaVuSans-5f" x="188.671875"/>
       <use xlink:href="#DejaVuSans-6f" x="238.671875"/>
       <use xlink:href="#DejaVuSans-62" x="299.853516"/>
       <use xlink:href="#DejaVuSans-6a" x="363.330078"/>
       <use xlink:href="#DejaVuSans-65" x="391.113281"/>
       <use xlink:href="#DejaVuSans-63" x="452.636719"/>
       <use xlink:href="#DejaVuSans-74" x="507.617188"/>
      </g>
     </g>
    </g>
    <g id="xtick_2">
     <g id="line2d_2">
      <g>
       <use xlink:href="#m63f558ecc8" x="371.551307" y="884.982583" style="stroke: #000000; stroke-width: 0.8"/>
      </g>
     </g>
     <g id="text_3">
      <!-- ant_object -->
      <g transform="translate(356.780822 936.856679)rotate(-50)scale(0.1 -0.1)">
       <defs>
        <path id="DejaVuSans-61" d="M 2194 1759 
Q 1497 1759 1228 1600 
Q 959 1441 959 1056 
Q 959 750 1161 570 
Q 1363 391 1709 391 
Q 2188 391 2477 730 
Q 2766 1069 2766 1631 
L 2766 1759 
L 2194 1759 
z
M 3341 1997 
L 3341 0 
L 2766 0 
L 2766 531 
Q 2569 213 2275 61 
Q 1981 -91 1556 -91 
Q 1019 -91 701 211 
Q 384 513 384 1019 
Q 384 1609 779 1909 
Q 1175 2209 1959 2209 
L 2766 2209 
L 2766 2266 
Q 2766 2663 2505 2880 
Q 2244 3097 1772 3097 
Q 1472 3097 1187 3025 
Q 903 2953 641 2809 
L 641 3341 
Q 956 3463 1253 3523 
Q 1550 3584 1831 3584 
Q 2591 3584 2966 3190 
Q 3341 2797 3341 1997 
z
" transform="scale(0.015625)"/>
        <path id="DejaVuSans-6e" d="M 3513 2113 
L 3513 0 
L 2938 0 
L 2938 2094 
Q 2938 2591 2744 2837 
Q 2550 3084 2163 3084 
Q 1697 3084 1428 2787 
Q 1159 2491 1159 1978 
L 1159 0 
L 581 0 
L 581 3500 
L 1159 3500 
L 1159 2956 
Q 1366 3272 1645 3428 
Q 1925 3584 2291 3584 
Q 2894 3584 3203 3211 
Q 3513 2838 3513 2113 
z
" transform="scale(0.015625)"/>
       </defs>
       <use xlink:href="#DejaVuSans-61"/>
       <use xlink:href="#DejaVuSans-6e" x="61.279297"/>
       <use xlink:href="#DejaVuSans-74" x="124.658203"/>
       <use xlink:href="#DejaVuSans-5f" x="163.867188"/>
       <use xlink:href="#DejaVuSans-6f" x="213.867188"/>
       <use xlink:href="#DejaVuSans-62" x="275.048828"/>
       <use xlink:href="#DejaVuSans-6a" x="338.525391"/>
       <use xlink:href="#DejaVuSans-65" x="366.308594"/>
       <use xlink:href="#DejaVuSans-63" x="427.832031"/>
       <use xlink:href="#DejaVuSans-74" x="482.8125"/>
      </g>
     </g>
     <g id="text_4">
      <!-- ant_object -->
      <g transform="translate(356.780822 32.597177)rotate(-50)scale(0.1 -0.1)">
       <use xlink:href="#DejaVuSans-61"/>
       <use xlink:href="#DejaVuSans-6e" x="61.279297"/>
       <use xlink:href="#DejaVuSans-74" x="124.658203"/>
       <use xlink:href="#DejaVuSans-5f" x="163.867188"/>
       <use xlink:href="#DejaVuSans-6f" x="213.867188"/>
       <use xlink:href="#DejaVuSans-62" x="275.048828"/>
       <use xlink:href="#DejaVuSans-6a" x="338.525391"/>
       <use xlink:href="#DejaVuSans-65" x="366.308594"/>
       <use xlink:href="#DejaVuSans-63" x="427.832031"/>
       <use xlink:href="#DejaVuSans-74" x="482.8125"/>
      </g>
     </g>
    </g>
    <g id="xtick_3">
     <g id="line2d_3">
      <g>
       <use xlink:href="#m63f558ecc8" x="487.547045" y="884.982583" style="stroke: #000000; stroke-width: 0.8"/>
      </g>
     </g>
     <g id="text_5">
      <!-- antl_color -->
      <g transform="translate(473.873819 934.241355)rotate(-50)scale(0.1 -0.1)">
       <defs>
        <path id="DejaVuSans-6c" d="M 603 4863 
L 1178 4863 
L 1178 0 
L 603 0 
L 603 4863 
z
" transform="scale(0.015625)"/>
        <path id="DejaVuSans-72" d="M 2631 2963 
Q 2534 3019 2420 3045 
Q 2306 3072 2169 3072 
Q 1681 3072 1420 2755 
Q 1159 2438 1159 1844 
L 1159 0 
L 581 0 
L 581 3500 
L 1159 3500 
L 1159 2956 
Q 1341 3275 1631 3429 
Q 1922 3584 2338 3584 
Q 2397 3584 2469 3576 
Q 2541 3569 2628 3553 
L 2631 2963 
z
" transform="scale(0.015625)"/>
       </defs>
       <use xlink:href="#DejaVuSans-61"/>
       <use xlink:href="#DejaVuSans-6e" x="61.279297"/>
       <use xlink:href="#DejaVuSans-74" x="124.658203"/>
       <use xlink:href="#DejaVuSans-6c" x="163.867188"/>
       <use xlink:href="#DejaVuSans-5f" x="191.650391"/>
       <use xlink:href="#DejaVuSans-63" x="241.650391"/>
       <use xlink:href="#DejaVuSans-6f" x="296.630859"/>
       <use xlink:href="#DejaVuSans-6c" x="357.8125"/>
       <use xlink:href="#DejaVuSans-6f" x="385.595703"/>
       <use xlink:href="#DejaVuSans-72" x="446.777344"/>
      </g>
     </g>
     <g id="text_6">
      <!-- antl_color -->
      <g transform="translate(473.873819 32.597177)rotate(-50)scale(0.1 -0.1)">
       <use xlink:href="#DejaVuSans-61"/>
       <use xlink:href="#DejaVuSans-6e" x="61.279297"/>
       <use xlink:href="#DejaVuSans-74" x="124.658203"/>
       <use xlink:href="#DejaVuSans-6c" x="163.867188"/>
       <use xlink:href="#DejaVuSans-5f" x="191.650391"/>
       <use xlink:href="#DejaVuSans-63" x="241.650391"/>
       <use xlink:href="#DejaVuSans-6f" x="296.630859"/>
       <use xlink:href="#DejaVuSans-6c" x="357.8125"/>
       <use xlink:href="#DejaVuSans-6f" x="385.595703"/>
       <use xlink:href="#DejaVuSans-72" x="446.777344"/>
      </g>
     </g>
    </g>
    <g id="xtick_4">
     <g id="line2d_4">
      <g>
       <use xlink:href="#m63f558ecc8" x="603.542784" y="884.982583" style="stroke: #000000; stroke-width: 0.8"/>
      </g>
     </g>
     <g id="text_7">
      <!-- V4v_color -->
      <g transform="translate(589.883116 934.209038)rotate(-50)scale(0.1 -0.1)">
       <defs>
        <path id="DejaVuSans-56" d="M 1831 0 
L 50 4666 
L 709 4666 
L 2188 738 
L 3669 4666 
L 4325 4666 
L 2547 0 
L 1831 0 
z
" transform="scale(0.015625)"/>
        <path id="DejaVuSans-34" d="M 2419 4116 
L 825 1625 
L 2419 1625 
L 2419 4116 
z
M 2253 4666 
L 3047 4666 
L 3047 1625 
L 3713 1625 
L 3713 1100 
L 3047 1100 
L 3047 0 
L 2419 0 
L 2419 1100 
L 313 1100 
L 313 1709 
L 2253 4666 
z
" transform="scale(0.015625)"/>
        <path id="DejaVuSans-76" d="M 191 3500 
L 800 3500 
L 1894 563 
L 2988 3500 
L 3597 3500 
L 2284 0 
L 1503 0 
L 191 3500 
z
" transform="scale(0.015625)"/>
       </defs>
       <use xlink:href="#DejaVuSans-56"/>
       <use xlink:href="#DejaVuSans-34" x="68.408203"/>
       <use xlink:href="#DejaVuSans-76" x="132.03125"/>
       <use xlink:href="#DejaVuSans-5f" x="191.210938"/>
       <use xlink:href="#DejaVuSans-63" x="241.210938"/>
       <use xlink:href="#DejaVuSans-6f" x="296.191406"/>
       <use xlink:href="#DejaVuSans-6c" x="357.373047"/>
       <use xlink:href="#DejaVuSans-6f" x="385.15625"/>
       <use xlink:href="#DejaVuSans-72" x="446.337891"/>
      </g>
     </g>
     <g id="text_8">
      <!-- V4v_color -->
      <g transform="translate(589.883116 32.597177)rotate(-50)scale(0.1 -0.1)">
       <use xlink:href="#DejaVuSans-56"/>
       <use xlink:href="#DejaVuSans-34" x="68.408203"/>
       <use xlink:href="#DejaVuSans-76" x="132.03125"/>
       <use xlink:href="#DejaVuSans-5f" x="191.210938"/>
       <use xlink:href="#DejaVuSans-63" x="241.210938"/>
       <use xlink:href="#DejaVuSans-6f" x="296.191406"/>
       <use xlink:href="#DejaVuSans-6c" x="357.373047"/>
       <use xlink:href="#DejaVuSans-6f" x="385.15625"/>
       <use xlink:href="#DejaVuSans-72" x="446.337891"/>
      </g>
     </g>
    </g>
    <g id="xtick_5">
     <g id="line2d_5">
      <g>
       <use xlink:href="#m63f558ecc8" x="719.538523" y="884.982583" style="stroke: #000000; stroke-width: 0.8"/>
      </g>
     </g>
     <g id="text_9">
      <!-- mid_face -->
      <g transform="translate(707.029344 931.466838)rotate(-50)scale(0.1 -0.1)">
       <defs>
        <path id="DejaVuSans-66" d="M 2375 4863 
L 2375 4384 
L 1825 4384 
Q 1516 4384 1395 4259 
Q 1275 4134 1275 3809 
L 1275 3500 
L 2222 3500 
L 2222 3053 
L 1275 3053 
L 1275 0 
L 697 0 
L 697 3053 
L 147 3053 
L 147 3500 
L 697 3500 
L 697 3744 
Q 697 4328 969 4595 
Q 1241 4863 1831 4863 
L 2375 4863 
z
" transform="scale(0.015625)"/>
       </defs>
       <use xlink:href="#DejaVuSans-6d"/>
       <use xlink:href="#DejaVuSans-69" x="97.412109"/>
       <use xlink:href="#DejaVuSans-64" x="125.195312"/>
       <use xlink:href="#DejaVuSans-5f" x="188.671875"/>
       <use xlink:href="#DejaVuSans-66" x="238.671875"/>
       <use xlink:href="#DejaVuSans-61" x="273.876953"/>
       <use xlink:href="#DejaVuSans-63" x="335.15625"/>
       <use xlink:href="#DejaVuSans-65" x="390.136719"/>
      </g>
     </g>
     <g id="text_10">
      <!-- mid_face -->
      <g transform="translate(707.029344 32.597177)rotate(-50)scale(0.1 -0.1)">
       <use xlink:href="#DejaVuSans-6d"/>
       <use xlink:href="#DejaVuSans-69" x="97.412109"/>
       <use xlink:href="#DejaVuSans-64" x="125.195312"/>
       <use xlink:href="#DejaVuSans-5f" x="188.671875"/>
       <use xlink:href="#DejaVuSans-66" x="238.671875"/>
       <use xlink:href="#DejaVuSans-61" x="273.876953"/>
       <use xlink:href="#DejaVuSans-63" x="335.15625"/>
       <use xlink:href="#DejaVuSans-65" x="390.136719"/>
      </g>
     </g>
    </g>
    <g id="xtick_6">
     <g id="line2d_6">
      <g>
       <use xlink:href="#m63f558ecc8" x="835.534261" y="884.982583" style="stroke: #000000; stroke-width: 0.8"/>
      </g>
     </g>
     <g id="text_11">
      <!-- ant_face1 -->
      <g transform="translate(821.777673 934.440048)rotate(-50)scale(0.1 -0.1)">
       <defs>
        <path id="DejaVuSans-31" d="M 794 531 
L 1825 531 
L 1825 4091 
L 703 3866 
L 703 4441 
L 1819 4666 
L 2450 4666 
L 2450 531 
L 3481 531 
L 3481 0 
L 794 0 
L 794 531 
z
" transform="scale(0.015625)"/>
       </defs>
       <use xlink:href="#DejaVuSans-61"/>
       <use xlink:href="#DejaVuSans-6e" x="61.279297"/>
       <use xlink:href="#DejaVuSans-74" x="124.658203"/>
       <use xlink:href="#DejaVuSans-5f" x="163.867188"/>
       <use xlink:href="#DejaVuSans-66" x="213.867188"/>
       <use xlink:href="#DejaVuSans-61" x="249.072266"/>
       <use xlink:href="#DejaVuSans-63" x="310.351562"/>
       <use xlink:href="#DejaVuSans-65" x="365.332031"/>
       <use xlink:href="#DejaVuSans-31" x="426.855469"/>
      </g>
     </g>
     <g id="text_12">
      <!-- ant_face1 -->
      <g transform="translate(821.777673 32.597177)rotate(-50)scale(0.1 -0.1)">
       <use xlink:href="#DejaVuSans-61"/>
       <use xlink:href="#DejaVuSans-6e" x="61.279297"/>
       <use xlink:href="#DejaVuSans-74" x="124.658203"/>
       <use xlink:href="#DejaVuSans-5f" x="163.867188"/>
       <use xlink:href="#DejaVuSans-66" x="213.867188"/>
       <use xlink:href="#DejaVuSans-61" x="249.072266"/>
       <use xlink:href="#DejaVuSans-63" x="310.351562"/>
       <use xlink:href="#DejaVuSans-65" x="365.332031"/>
       <use xlink:href="#DejaVuSans-31" x="426.855469"/>
      </g>
     </g>
    </g>
    <g id="xtick_7">
     <g id="line2d_7">
      <g>
       <use xlink:href="#m63f558ecc8" x="951.53" y="884.982583" style="stroke: #000000; stroke-width: 0.8"/>
      </g>
     </g>
     <g id="text_13">
      <!-- mid_color -->
      <g transform="translate(937.952187 934.013936)rotate(-50)scale(0.1 -0.1)">
       <use xlink:href="#DejaVuSans-6d"/>
       <use xlink:href="#DejaVuSans-69" x="97.412109"/>
       <use xlink:href="#DejaVuSans-64" x="125.195312"/>
       <use xlink:href="#DejaVuSans-5f" x="188.671875"/>
       <use xlink:href="#DejaVuSans-63" x="238.671875"/>
       <use xlink:href="#DejaVuSans-6f" x="293.652344"/>
       <use xlink:href="#DejaVuSans-6c" x="354.833984"/>
       <use xlink:href="#DejaVuSans-6f" x="382.617188"/>
       <use xlink:href="#DejaVuSans-72" x="443.798828"/>
      </g>
     </g>
     <g id="text_14">
      <!-- mid_color -->
      <g transform="translate(937.952187 32.597177)rotate(-50)scale(0.1 -0.1)">
       <use xlink:href="#DejaVuSans-6d"/>
       <use xlink:href="#DejaVuSans-69" x="97.412109"/>
       <use xlink:href="#DejaVuSans-64" x="125.195312"/>
       <use xlink:href="#DejaVuSans-5f" x="188.671875"/>
       <use xlink:href="#DejaVuSans-63" x="238.671875"/>
       <use xlink:href="#DejaVuSans-6f" x="293.652344"/>
       <use xlink:href="#DejaVuSans-6c" x="354.833984"/>
       <use xlink:href="#DejaVuSans-6f" x="382.617188"/>
       <use xlink:href="#DejaVuSans-72" x="443.798828"/>
      </g>
     </g>
    </g>
    <g id="xtick_8">
     <g id="line2d_8">
      <g>
       <use xlink:href="#m63f558ecc8" x="1067.525739" y="884.982583" style="stroke: #000000; stroke-width: 0.8"/>
      </g>
     </g>
     <g id="text_15">
      <!-- antm_color -->
      <g transform="translate(1051.614808 939.574939)rotate(-50)scale(0.1 -0.1)">
       <use xlink:href="#DejaVuSans-61"/>
       <use xlink:href="#DejaVuSans-6e" x="61.279297"/>
       <use xlink:href="#DejaVuSans-74" x="124.658203"/>
       <use xlink:href="#DejaVuSans-6d" x="163.867188"/>
       <use xlink:href="#DejaVuSans-5f" x="261.279297"/>
       <use xlink:href="#DejaVuSans-63" x="311.279297"/>
       <use xlink:href="#DejaVuSans-6f" x="366.259766"/>
       <use xlink:href="#DejaVuSans-6c" x="427.441406"/>
       <use xlink:href="#DejaVuSans-6f" x="455.224609"/>
       <use xlink:href="#DejaVuSans-72" x="516.40625"/>
      </g>
     </g>
     <g id="text_16">
      <!-- antm_color -->
      <g transform="translate(1051.614808 32.597177)rotate(-50)scale(0.1 -0.1)">
       <use xlink:href="#DejaVuSans-61"/>
       <use xlink:href="#DejaVuSans-6e" x="61.279297"/>
       <use xlink:href="#DejaVuSans-74" x="124.658203"/>
       <use xlink:href="#DejaVuSans-6d" x="163.867188"/>
       <use xlink:href="#DejaVuSans-5f" x="261.279297"/>
       <use xlink:href="#DejaVuSans-63" x="311.279297"/>
       <use xlink:href="#DejaVuSans-6f" x="366.259766"/>
       <use xlink:href="#DejaVuSans-6c" x="427.441406"/>
       <use xlink:href="#DejaVuSans-6f" x="455.224609"/>
       <use xlink:href="#DejaVuSans-72" x="516.40625"/>
      </g>
     </g>
    </g>
    <g id="xtick_9">
     <g id="line2d_9">
      <g>
       <use xlink:href="#m63f558ecc8" x="1183.521477" y="884.982583" style="stroke: #000000; stroke-width: 0.8"/>
      </g>
     </g>
     <g id="text_17">
      <!-- post_color -->
      <g transform="translate(1169.06636 936.104998)rotate(-50)scale(0.1 -0.1)">
       <defs>
        <path id="DejaVuSans-70" d="M 1159 525 
L 1159 -1331 
L 581 -1331 
L 581 3500 
L 1159 3500 
L 1159 2969 
Q 1341 3281 1617 3432 
Q 1894 3584 2278 3584 
Q 2916 3584 3314 3078 
Q 3713 2572 3713 1747 
Q 3713 922 3314 415 
Q 2916 -91 2278 -91 
Q 1894 -91 1617 61 
Q 1341 213 1159 525 
z
M 3116 1747 
Q 3116 2381 2855 2742 
Q 2594 3103 2138 3103 
Q 1681 3103 1420 2742 
Q 1159 2381 1159 1747 
Q 1159 1113 1420 752 
Q 1681 391 2138 391 
Q 2594 391 2855 752 
Q 3116 1113 3116 1747 
z
" transform="scale(0.015625)"/>
        <path id="DejaVuSans-73" d="M 2834 3397 
L 2834 2853 
Q 2591 2978 2328 3040 
Q 2066 3103 1784 3103 
Q 1356 3103 1142 2972 
Q 928 2841 928 2578 
Q 928 2378 1081 2264 
Q 1234 2150 1697 2047 
L 1894 2003 
Q 2506 1872 2764 1633 
Q 3022 1394 3022 966 
Q 3022 478 2636 193 
Q 2250 -91 1575 -91 
Q 1294 -91 989 -36 
Q 684 19 347 128 
L 347 722 
Q 666 556 975 473 
Q 1284 391 1588 391 
Q 1994 391 2212 530 
Q 2431 669 2431 922 
Q 2431 1156 2273 1281 
Q 2116 1406 1581 1522 
L 1381 1569 
Q 847 1681 609 1914 
Q 372 2147 372 2553 
Q 372 3047 722 3315 
Q 1072 3584 1716 3584 
Q 2034 3584 2315 3537 
Q 2597 3491 2834 3397 
z
" transform="scale(0.015625)"/>
       </defs>
       <use xlink:href="#DejaVuSans-70"/>
       <use xlink:href="#DejaVuSans-6f" x="63.476562"/>
       <use xlink:href="#DejaVuSans-73" x="124.658203"/>
       <use xlink:href="#DejaVuSans-74" x="176.757812"/>
       <use xlink:href="#DejaVuSans-5f" x="215.966797"/>
       <use xlink:href="#DejaVuSans-63" x="265.966797"/>
       <use xlink:href="#DejaVuSans-6f" x="320.947266"/>
       <use xlink:href="#DejaVuSans-6c" x="382.128906"/>
       <use xlink:href="#DejaVuSans-6f" x="409.912109"/>
       <use xlink:href="#DejaVuSans-72" x="471.09375"/>
      </g>
     </g>
     <g id="text_18">
      <!-- post_color -->
      <g transform="translate(1169.06636 32.597177)rotate(-50)scale(0.1 -0.1)">
       <use xlink:href="#DejaVuSans-70"/>
       <use xlink:href="#DejaVuSans-6f" x="63.476562"/>
       <use xlink:href="#DejaVuSans-73" x="124.658203"/>
       <use xlink:href="#DejaVuSans-74" x="176.757812"/>
       <use xlink:href="#DejaVuSans-5f" x="215.966797"/>
       <use xlink:href="#DejaVuSans-63" x="265.966797"/>
       <use xlink:href="#DejaVuSans-6f" x="320.947266"/>
       <use xlink:href="#DejaVuSans-6c" x="382.128906"/>
       <use xlink:href="#DejaVuSans-6f" x="409.912109"/>
       <use xlink:href="#DejaVuSans-72" x="471.09375"/>
      </g>
     </g>
    </g>
    <g id="xtick_10">
     <g id="line2d_10">
      <g>
       <use xlink:href="#m63f558ecc8" x="1299.517216" y="884.982583" style="stroke: #000000; stroke-width: 0.8"/>
      </g>
     </g>
     <g id="text_19">
      <!-- ant_face2 -->
      <g transform="translate(1285.760628 934.440048)rotate(-50)scale(0.1 -0.1)">
       <defs>
        <path id="DejaVuSans-32" d="M 1228 531 
L 3431 531 
L 3431 0 
L 469 0 
L 469 531 
Q 828 903 1448 1529 
Q 2069 2156 2228 2338 
Q 2531 2678 2651 2914 
Q 2772 3150 2772 3378 
Q 2772 3750 2511 3984 
Q 2250 4219 1831 4219 
Q 1534 4219 1204 4116 
Q 875 4013 500 3803 
L 500 4441 
Q 881 4594 1212 4672 
Q 1544 4750 1819 4750 
Q 2544 4750 2975 4387 
Q 3406 4025 3406 3419 
Q 3406 3131 3298 2873 
Q 3191 2616 2906 2266 
Q 2828 2175 2409 1742 
Q 1991 1309 1228 531 
z
" transform="scale(0.015625)"/>
       </defs>
       <use xlink:href="#DejaVuSans-61"/>
       <use xlink:href="#DejaVuSans-6e" x="61.279297"/>
       <use xlink:href="#DejaVuSans-74" x="124.658203"/>
       <use xlink:href="#DejaVuSans-5f" x="163.867188"/>
       <use xlink:href="#DejaVuSans-66" x="213.867188"/>
       <use xlink:href="#DejaVuSans-61" x="249.072266"/>
       <use xlink:href="#DejaVuSans-63" x="310.351562"/>
       <use xlink:href="#DejaVuSans-65" x="365.332031"/>
       <use xlink:href="#DejaVuSans-32" x="426.855469"/>
      </g>
     </g>
     <g id="text_20">
      <!-- ant_face2 -->
      <g transform="translate(1285.760628 32.597177)rotate(-50)scale(0.1 -0.1)">
       <use xlink:href="#DejaVuSans-61"/>
       <use xlink:href="#DejaVuSans-6e" x="61.279297"/>
       <use xlink:href="#DejaVuSans-74" x="124.658203"/>
       <use xlink:href="#DejaVuSans-5f" x="163.867188"/>
       <use xlink:href="#DejaVuSans-66" x="213.867188"/>
       <use xlink:href="#DejaVuSans-61" x="249.072266"/>
       <use xlink:href="#DejaVuSans-63" x="310.351562"/>
       <use xlink:href="#DejaVuSans-65" x="365.332031"/>
       <use xlink:href="#DejaVuSans-32" x="426.855469"/>
      </g>
     </g>
    </g>
    <g id="xtick_11">
     <g id="line2d_11">
      <g>
       <use xlink:href="#m63f558ecc8" x="1415.512955" y="884.982583" style="stroke: #000000; stroke-width: 0.8"/>
      </g>
     </g>
     <g id="text_21">
      <!-- post_object -->
      <g transform="translate(1399.067706 940.848488)rotate(-50)scale(0.1 -0.1)">
       <use xlink:href="#DejaVuSans-70"/>
       <use xlink:href="#DejaVuSans-6f" x="63.476562"/>
       <use xlink:href="#DejaVuSans-73" x="124.658203"/>
       <use xlink:href="#DejaVuSans-74" x="176.757812"/>
       <use xlink:href="#DejaVuSans-5f" x="215.966797"/>
       <use xlink:href="#DejaVuSans-6f" x="265.966797"/>
       <use xlink:href="#DejaVuSans-62" x="327.148438"/>
       <use xlink:href="#DejaVuSans-6a" x="390.625"/>
       <use xlink:href="#DejaVuSans-65" x="418.408203"/>
       <use xlink:href="#DejaVuSans-63" x="479.931641"/>
       <use xlink:href="#DejaVuSans-74" x="534.912109"/>
      </g>
     </g>
     <g id="text_22">
      <!-- post_object -->
      <g transform="translate(1399.067706 32.597177)rotate(-50)scale(0.1 -0.1)">
       <use xlink:href="#DejaVuSans-70"/>
       <use xlink:href="#DejaVuSans-6f" x="63.476562"/>
       <use xlink:href="#DejaVuSans-73" x="124.658203"/>
       <use xlink:href="#DejaVuSans-74" x="176.757812"/>
       <use xlink:href="#DejaVuSans-5f" x="215.966797"/>
       <use xlink:href="#DejaVuSans-6f" x="265.966797"/>
       <use xlink:href="#DejaVuSans-62" x="327.148438"/>
       <use xlink:href="#DejaVuSans-6a" x="390.625"/>
       <use xlink:href="#DejaVuSans-65" x="418.408203"/>
       <use xlink:href="#DejaVuSans-63" x="479.931641"/>
       <use xlink:href="#DejaVuSans-74" x="534.912109"/>
      </g>
     </g>
    </g>
    <g id="xtick_12">
     <g id="line2d_12">
      <g>
       <use xlink:href="#m63f558ecc8" x="1531.508693" y="884.982583" style="stroke: #000000; stroke-width: 0.8"/>
      </g>
     </g>
     <g id="text_23">
      <!-- post_face -->
      <g transform="translate(1518.12221 933.5579)rotate(-50)scale(0.1 -0.1)">
       <use xlink:href="#DejaVuSans-70"/>
       <use xlink:href="#DejaVuSans-6f" x="63.476562"/>
       <use xlink:href="#DejaVuSans-73" x="124.658203"/>
       <use xlink:href="#DejaVuSans-74" x="176.757812"/>
       <use xlink:href="#DejaVuSans-5f" x="215.966797"/>
       <use xlink:href="#DejaVuSans-66" x="265.966797"/>
       <use xlink:href="#DejaVuSans-61" x="301.171875"/>
       <use xlink:href="#DejaVuSans-63" x="362.451172"/>
       <use xlink:href="#DejaVuSans-65" x="417.431641"/>
      </g>
     </g>
     <g id="text_24">
      <!-- post_face -->
      <g transform="translate(1518.12221 32.597177)rotate(-50)scale(0.1 -0.1)">
       <use xlink:href="#DejaVuSans-70"/>
       <use xlink:href="#DejaVuSans-6f" x="63.476562"/>
       <use xlink:href="#DejaVuSans-73" x="124.658203"/>
       <use xlink:href="#DejaVuSans-74" x="176.757812"/>
       <use xlink:href="#DejaVuSans-5f" x="215.966797"/>
       <use xlink:href="#DejaVuSans-66" x="265.966797"/>
       <use xlink:href="#DejaVuSans-61" x="301.171875"/>
       <use xlink:href="#DejaVuSans-63" x="362.451172"/>
       <use xlink:href="#DejaVuSans-65" x="417.431641"/>
      </g>
     </g>
    </g>
    <g id="xtick_13">
     <g id="line2d_13">
      <g>
       <use xlink:href="#m63f558ecc8" x="1647.504432" y="884.982583" style="stroke: #000000; stroke-width: 0.8"/>
      </g>
     </g>
     <g id="text_25">
      <!-- V4d_both_color -->
      <g transform="translate(1624.796022 955.776779)rotate(-50)scale(0.1 -0.1)">
       <defs>
        <path id="DejaVuSans-68" d="M 3513 2113 
L 3513 0 
L 2938 0 
L 2938 2094 
Q 2938 2591 2744 2837 
Q 2550 3084 2163 3084 
Q 1697 3084 1428 2787 
Q 1159 2491 1159 1978 
L 1159 0 
L 581 0 
L 581 4863 
L 1159 4863 
L 1159 2956 
Q 1366 3272 1645 3428 
Q 1925 3584 2291 3584 
Q 2894 3584 3203 3211 
Q 3513 2838 3513 2113 
z
" transform="scale(0.015625)"/>
       </defs>
       <use xlink:href="#DejaVuSans-56"/>
       <use xlink:href="#DejaVuSans-34" x="68.408203"/>
       <use xlink:href="#DejaVuSans-64" x="132.03125"/>
       <use xlink:href="#DejaVuSans-5f" x="195.507812"/>
       <use xlink:href="#DejaVuSans-62" x="245.507812"/>
       <use xlink:href="#DejaVuSans-6f" x="308.984375"/>
       <use xlink:href="#DejaVuSans-74" x="370.166016"/>
       <use xlink:href="#DejaVuSans-68" x="409.375"/>
       <use xlink:href="#DejaVuSans-5f" x="472.753906"/>
       <use xlink:href="#DejaVuSans-63" x="522.753906"/>
       <use xlink:href="#DejaVuSans-6f" x="577.734375"/>
       <use xlink:href="#DejaVuSans-6c" x="638.916016"/>
       <use xlink:href="#DejaVuSans-6f" x="666.699219"/>
       <use xlink:href="#DejaVuSans-72" x="727.880859"/>
      </g>
     </g>
     <g id="text_26">
      <!-- V4d_both_color -->
      <g transform="translate(1624.796022 32.597177)rotate(-50)scale(0.1 -0.1)">
       <use xlink:href="#DejaVuSans-56"/>
       <use xlink:href="#DejaVuSans-34" x="68.408203"/>
       <use xlink:href="#DejaVuSans-64" x="132.03125"/>
       <use xlink:href="#DejaVuSans-5f" x="195.507812"/>
       <use xlink:href="#DejaVuSans-62" x="245.507812"/>
       <use xlink:href="#DejaVuSans-6f" x="308.984375"/>
       <use xlink:href="#DejaVuSans-74" x="370.166016"/>
       <use xlink:href="#DejaVuSans-68" x="409.375"/>
       <use xlink:href="#DejaVuSans-5f" x="472.753906"/>
       <use xlink:href="#DejaVuSans-63" x="522.753906"/>
       <use xlink:href="#DejaVuSans-6f" x="577.734375"/>
       <use xlink:href="#DejaVuSans-6c" x="638.916016"/>
       <use xlink:href="#DejaVuSans-6f" x="666.699219"/>
       <use xlink:href="#DejaVuSans-72" x="727.880859"/>
      </g>
     </g>
    </g>
   </g>
   <g id="matplotlib.axis_2">
    <g id="ytick_1">
     <g id="line2d_14">
      <defs>
       <path id="mbfbb731b12" d="M 0 0 
L -3.5 0 
" style="stroke: #000000; stroke-width: 0.8"/>
      </defs>
      <g>
       <use xlink:href="#mbfbb731b12" x="134.92" y="884.982583" style="stroke: #000000; stroke-width: 0.8"/>
      </g>
     </g>
     <g id="text_27">
      <!-- 0.00 -->
      <g transform="translate(105.654375 888.781802)scale(0.1 -0.1)">
       <defs>
        <path id="DejaVuSans-30" d="M 2034 4250 
Q 1547 4250 1301 3770 
Q 1056 3291 1056 2328 
Q 1056 1369 1301 889 
Q 1547 409 2034 409 
Q 2525 409 2770 889 
Q 3016 1369 3016 2328 
Q 3016 3291 2770 3770 
Q 2525 4250 2034 4250 
z
M 2034 4750 
Q 2819 4750 3233 4129 
Q 3647 3509 3647 2328 
Q 3647 1150 3233 529 
Q 2819 -91 2034 -91 
Q 1250 -91 836 529 
Q 422 1150 422 2328 
Q 422 3509 836 4129 
Q 1250 4750 2034 4750 
z
" transform="scale(0.015625)"/>
        <path id="DejaVuSans-2e" d="M 684 794 
L 1344 794 
L 1344 0 
L 684 0 
L 684 794 
z
" transform="scale(0.015625)"/>
       </defs>
       <use xlink:href="#DejaVuSans-30"/>
       <use xlink:href="#DejaVuSans-2e" x="63.623047"/>
       <use xlink:href="#DejaVuSans-30" x="95.410156"/>
       <use xlink:href="#DejaVuSans-30" x="159.033203"/>
      </g>
     </g>
    </g>
    <g id="ytick_2">
     <g id="line2d_15">
      <g>
       <use xlink:href="#mbfbb731b12" x="134.92" y="757.079741" style="stroke: #000000; stroke-width: 0.8"/>
      </g>
     </g>
     <g id="text_28">
      <!-- 0.05 -->
      <g transform="translate(105.654375 760.87896)scale(0.1 -0.1)">
       <defs>
        <path id="DejaVuSans-35" d="M 691 4666 
L 3169 4666 
L 3169 4134 
L 1269 4134 
L 1269 2991 
Q 1406 3038 1543 3061 
Q 1681 3084 1819 3084 
Q 2600 3084 3056 2656 
Q 3513 2228 3513 1497 
Q 3513 744 3044 326 
Q 2575 -91 1722 -91 
Q 1428 -91 1123 -41 
Q 819 9 494 109 
L 494 744 
Q 775 591 1075 516 
Q 1375 441 1709 441 
Q 2250 441 2565 725 
Q 2881 1009 2881 1497 
Q 2881 1984 2565 2268 
Q 2250 2553 1709 2553 
Q 1456 2553 1204 2497 
Q 953 2441 691 2322 
L 691 4666 
z
" transform="scale(0.015625)"/>
       </defs>
       <use xlink:href="#DejaVuSans-30"/>
       <use xlink:href="#DejaVuSans-2e" x="63.623047"/>
       <use xlink:href="#DejaVuSans-30" x="95.410156"/>
       <use xlink:href="#DejaVuSans-35" x="159.033203"/>
      </g>
     </g>
    </g>
    <g id="ytick_3">
     <g id="line2d_16">
      <g>
       <use xlink:href="#mbfbb731b12" x="134.92" y="629.176899" style="stroke: #000000; stroke-width: 0.8"/>
      </g>
     </g>
     <g id="text_29">
      <!-- 0.10 -->
      <g transform="translate(105.654375 632.976118)scale(0.1 -0.1)">
       <use xlink:href="#DejaVuSans-30"/>
       <use xlink:href="#DejaVuSans-2e" x="63.623047"/>
       <use xlink:href="#DejaVuSans-31" x="95.410156"/>
       <use xlink:href="#DejaVuSans-30" x="159.033203"/>
      </g>
     </g>
    </g>
    <g id="ytick_4">
     <g id="line2d_17">
      <g>
       <use xlink:href="#mbfbb731b12" x="134.92" y="501.274057" style="stroke: #000000; stroke-width: 0.8"/>
      </g>
     </g>
     <g id="text_30">
      <!-- 0.15 -->
      <g transform="translate(105.654375 505.073276)scale(0.1 -0.1)">
       <use xlink:href="#DejaVuSans-30"/>
       <use xlink:href="#DejaVuSans-2e" x="63.623047"/>
       <use xlink:href="#DejaVuSans-31" x="95.410156"/>
       <use xlink:href="#DejaVuSans-35" x="159.033203"/>
      </g>
     </g>
    </g>
    <g id="ytick_5">
     <g id="line2d_18">
      <g>
       <use xlink:href="#mbfbb731b12" x="134.92" y="373.371215" style="stroke: #000000; stroke-width: 0.8"/>
      </g>
     </g>
     <g id="text_31">
      <!-- 0.20 -->
      <g transform="translate(105.654375 377.170434)scale(0.1 -0.1)">
       <use xlink:href="#DejaVuSans-30"/>
       <use xlink:href="#DejaVuSans-2e" x="63.623047"/>
       <use xlink:href="#DejaVuSans-32" x="95.410156"/>
       <use xlink:href="#DejaVuSans-30" x="159.033203"/>
      </g>
     </g>
    </g>
    <g id="ytick_6">
     <g id="line2d_19">
      <g>
       <use xlink:href="#mbfbb731b12" x="134.92" y="245.468373" style="stroke: #000000; stroke-width: 0.8"/>
      </g>
     </g>
     <g id="text_32">
      <!-- 0.25 -->
      <g transform="translate(105.654375 249.267592)scale(0.1 -0.1)">
       <use xlink:href="#DejaVuSans-30"/>
       <use xlink:href="#DejaVuSans-2e" x="63.623047"/>
       <use xlink:href="#DejaVuSans-32" x="95.410156"/>
       <use xlink:href="#DejaVuSans-35" x="159.033203"/>
      </g>
     </g>
    </g>
    <g id="ytick_7">
     <g id="line2d_20">
      <g>
       <use xlink:href="#mbfbb731b12" x="134.92" y="117.565531" style="stroke: #000000; stroke-width: 0.8"/>
      </g>
     </g>
     <g id="text_33">
      <!-- 0.30 -->
      <g transform="translate(105.654375 121.36475)scale(0.1 -0.1)">
       <defs>
        <path id="DejaVuSans-33" d="M 2597 2516 
Q 3050 2419 3304 2112 
Q 3559 1806 3559 1356 
Q 3559 666 3084 287 
Q 2609 -91 1734 -91 
Q 1441 -91 1130 -33 
Q 819 25 488 141 
L 488 750 
Q 750 597 1062 519 
Q 1375 441 1716 441 
Q 2309 441 2620 675 
Q 2931 909 2931 1356 
Q 2931 1769 2642 2001 
Q 2353 2234 1838 2234 
L 1294 2234 
L 1294 2753 
L 1863 2753 
Q 2328 2753 2575 2939 
Q 2822 3125 2822 3475 
Q 2822 3834 2567 4026 
Q 2313 4219 1838 4219 
Q 1578 4219 1281 4162 
Q 984 4106 628 3988 
L 628 4550 
Q 988 4650 1302 4700 
Q 1616 4750 1894 4750 
Q 2613 4750 3031 4423 
Q 3450 4097 3450 3541 
Q 3450 3153 3228 2886 
Q 3006 2619 2597 2516 
z
" transform="scale(0.015625)"/>
       </defs>
       <use xlink:href="#DejaVuSans-30"/>
       <use xlink:href="#DejaVuSans-2e" x="63.623047"/>
       <use xlink:href="#DejaVuSans-33" x="95.410156"/>
       <use xlink:href="#DejaVuSans-30" x="159.033203"/>
      </g>
     </g>
    </g>
   </g>
   <g id="LineCollection_1">
    <path d="M 255.555568 428.228714 
L 255.555568 279.432292 
" clip-path="url(#p7146381b06)" style="fill: none; stroke: #000000; stroke-width: 1.5"/>
    <path d="M 371.551307 448.86443 
L 371.551307 290.772286 
" clip-path="url(#p7146381b06)" style="fill: none; stroke: #000000; stroke-width: 1.5"/>
    <path d="M 487.547045 450.359985 
L 487.547045 381.651006 
" clip-path="url(#p7146381b06)" style="fill: none; stroke: #000000; stroke-width: 1.5"/>
    <path d="M 603.542784 333.129765 
L 603.542784 260.839825 
" clip-path="url(#p7146381b06)" style="fill: none; stroke: #000000; stroke-width: 1.5"/>
    <path d="M 719.538523 313.503315 
L 719.538523 188.092001 
" clip-path="url(#p7146381b06)" style="fill: none; stroke: #000000; stroke-width: 1.5"/>
    <path d="M 835.534261 452.727056 
L 835.534261 372.178222 
" clip-path="url(#p7146381b06)" style="fill: none; stroke: #000000; stroke-width: 1.5"/>
    <path d="M 951.53 374.467391 
L 951.53 287.006478 
" clip-path="url(#p7146381b06)" style="fill: none; stroke: #000000; stroke-width: 1.5"/>
    <path d="M 1067.525739 450.635978 
L 1067.525739 370.716443 
" clip-path="url(#p7146381b06)" style="fill: none; stroke: #000000; stroke-width: 1.5"/>
    <path d="M 1183.521477 171.598317 
L 1183.521477 81.297028 
" clip-path="url(#p7146381b06)" style="fill: none; stroke: #000000; stroke-width: 1.5"/>
    <path d="M 1299.517216 337.368698 
L 1299.517216 277.918034 
" clip-path="url(#p7146381b06)" style="fill: none; stroke: #000000; stroke-width: 1.5"/>
    <path d="M 1415.512955 303.963296 
L 1415.512955 254.477728 
" clip-path="url(#p7146381b06)" style="fill: none; stroke: #000000; stroke-width: 1.5"/>
    <path d="M 1531.508693 256.126943 
L 1531.508693 142.435528 
" clip-path="url(#p7146381b06)" style="fill: none; stroke: #000000; stroke-width: 1.5"/>
    <path d="M 1647.504432 195.266891 
L 1647.504432 93.157022 
" clip-path="url(#p7146381b06)" style="fill: none; stroke: #000000; stroke-width: 1.5"/>
   </g>
   <g id="LineCollection_2">
    <path d="M 255.555568 483.038106 
L 255.555568 416.654806 
" clip-path="url(#p7146381b06)" style="fill: none; stroke: #000000; stroke-width: 1.5"/>
    <path d="M 371.551307 468.58133 
L 371.551307 401.267586 
" clip-path="url(#p7146381b06)" style="fill: none; stroke: #000000; stroke-width: 1.5"/>
    <path d="M 487.547045 538.026642 
L 487.547045 446.934832 
" clip-path="url(#p7146381b06)" style="fill: none; stroke: #000000; stroke-width: 1.5"/>
    <path d="M 603.542784 472.293858 
L 603.542784 406.081914 
" clip-path="url(#p7146381b06)" style="fill: none; stroke: #000000; stroke-width: 1.5"/>
    <path d="M 719.538523 507.35199 
L 719.538523 424.849561 
" clip-path="url(#p7146381b06)" style="fill: none; stroke: #000000; stroke-width: 1.5"/>
    <path d="M 835.534261 473.25964 
L 835.534261 397.655133 
" clip-path="url(#p7146381b06)" style="fill: none; stroke: #000000; stroke-width: 1.5"/>
    <path d="M 951.53 513.339754 
L 951.53 440.178937 
" clip-path="url(#p7146381b06)" style="fill: none; stroke: #000000; stroke-width: 1.5"/>
    <path d="M 1067.525739 466.624282 
L 1067.525739 413.883204 
" clip-path="url(#p7146381b06)" style="fill: none; stroke: #000000; stroke-width: 1.5"/>
    <path d="M 1183.521477 439.650368 
L 1183.521477 401.420408 
" clip-path="url(#p7146381b06)" style="fill: none; stroke: #000000; stroke-width: 1.5"/>
    <path d="M 1299.517216 466.999188 
L 1299.517216 416.705869 
" clip-path="url(#p7146381b06)" style="fill: none; stroke: #000000; stroke-width: 1.5"/>
    <path d="M 1415.512955 507.47969 
L 1415.512955 391.147365 
" clip-path="url(#p7146381b06)" style="fill: none; stroke: #000000; stroke-width: 1.5"/>
    <path d="M 1531.508693 460.695494 
L 1531.508693 354.261785 
" clip-path="url(#p7146381b06)" style="fill: none; stroke: #000000; stroke-width: 1.5"/>
    <path d="M 1647.504432 431.461601 
L 1647.504432 371.238322 
" clip-path="url(#p7146381b06)" style="fill: none; stroke: #000000; stroke-width: 1.5"/>
   </g>
   <g id="line2d_21"/>
   <g id="line2d_22"/>
   <g id="patch_29">
    <path d="M 134.92 884.982583 
L 134.92 41.11275 
" style="fill: none; stroke: #000000; stroke-width: 0.8; stroke-linejoin: miter; stroke-linecap: square"/>
   </g>
   <g id="patch_30">
    <path d="M 1768.14 884.982583 
L 1768.14 41.11275 
" style="fill: none; stroke: #000000; stroke-width: 0.8; stroke-linejoin: miter; stroke-linecap: square"/>
   </g>
   <g id="patch_31">
    <path d="M 134.92 884.982583 
L 1768.14 884.982583 
" style="fill: none; stroke: #000000; stroke-width: 0.8; stroke-linejoin: miter; stroke-linecap: square"/>
   </g>
   <g id="patch_32">
    <path d="M 134.92 41.11275 
L 1768.14 41.11275 
" style="fill: none; stroke: #000000; stroke-width: 0.8; stroke-linejoin: miter; stroke-linecap: square"/>
   </g>
  </g>
 </g>
 <defs>
  <clipPath id="p7146381b06">
   <rect x="134.92" y="41.11275" width="1633.22" height="843.869833"/>
  </clipPath>
 </defs>
</svg>
